<svg xmlns="http://www.w3.org/2000/svg" xmlns:xlink="http://www.w3.org/1999/xlink" width="57" height="60.533" viewBox="0 0 57 60.533">
  <defs>
    <linearGradient id="linear-gradient" x1="0.528" y1="0.842" x2="0.465" y2="-0.346" gradientUnits="objectBoundingBox">
      <stop offset="0" stop-color="#e04108"/>
      <stop offset="0.999" stop-color="#ffaf00"/>
    </linearGradient>
    <linearGradient id="linear-gradient-2" x1="0.734" y1="-0.124" x2="0.278" y2="0.853" xlink:href="#linear-gradient"/>
    <linearGradient id="linear-gradient-11" x1="0.297" y1="0.311" x2="0.843" y2="0.935" xlink:href="#linear-gradient"/>
  </defs>
  <g id="Group_1624" data-name="Group 1624" transform="translate(-543.572 -439.94)">
    <g id="Group_1595" data-name="Group 1595" transform="translate(543.572 461.493)">
      <path id="Path_2489" data-name="Path 2489" d="M583.566,475.646V472.57l-5.469,1.312-5.962-1.08a1.953,1.953,0,0,1-1.39-.8l-3.124-5.751c-.523-.963-2.728-1.169-3.73-.348l-5.991,4.9a2.794,2.794,0,0,1-1.742.51l-10.42-.1c-.019,0-.036,0-.055,0l-2.111-2.111v3.218l.043.024a.9.9,0,0,0,.42.806l6.259,4.833a.83.83,0,0,1,.313,1.117l-1.868,3.206-1.542-.253v2.991a.7.7,0,0,0,0,.293v.055l.016-.007c.209.692,1.46,1.2,2.756.951l9.858-1.914a3.427,3.427,0,0,1,1.936.181l8.371,3.613c1.4.605,3.386.024,3.358-.983l-.165-6.016c-.012-.4.319-.776.883-1.006l8.49-3.458C583.371,476.485,583.641,476.055,583.566,475.646Z" transform="translate(-543.572 -462.214)" fill="url(#linear-gradient)"/>
      <path id="Path_2490" data-name="Path 2490" d="M572.136,469.532l9.961,1.8c1.667.3,2.023,1.574.6,2.153l-8.49,3.458c-.565.23-.9.606-.883,1.007l.165,6.016c.028,1.008-1.957,1.589-3.358.983l-8.37-3.613a3.423,3.423,0,0,0-1.937-.181l-9.858,1.914c-1.65.321-3.233-.594-2.678-1.546l3.316-5.691a.831.831,0,0,0-.313-1.118l-6.259-4.832c-1.047-.809-.041-1.955,1.7-1.939l10.421.1a2.8,2.8,0,0,0,1.742-.51l5.99-4.9c1-.821,3.208-.615,3.73.348l3.124,5.75A1.949,1.949,0,0,0,572.136,469.532Z" transform="translate(-543.573 -462.121)" fill="url(#linear-gradient-2)"/>
    </g>
    <g id="Group_1596" data-name="Group 1596" transform="translate(543.572 456.105)">
      <path id="Path_2491" data-name="Path 2491" d="M583.566,470.1v-3.076l-5.469,1.311-5.962-1.08a1.948,1.948,0,0,1-1.39-.8l-3.124-5.75c-.523-.963-2.728-1.169-3.73-.348l-5.991,4.9a2.8,2.8,0,0,1-1.742.51l-10.42-.1-.055,0-2.111-2.111v3.217l.043.024a.9.9,0,0,0,.42.807l6.259,4.832a.83.83,0,0,1,.313,1.117l-1.868,3.207-1.542-.253v2.99a.7.7,0,0,0,0,.294v.054l.016-.007c.209.693,1.46,1.2,2.756.952l9.858-1.914a3.427,3.427,0,0,1,1.936.18l8.371,3.614c1.4.605,3.386.023,3.358-.983l-.165-6.016c-.012-.4.319-.776.883-1.007l8.49-3.458C583.371,470.94,583.641,470.51,583.566,470.1Z" transform="translate(-543.572 -456.668)" fill="url(#linear-gradient)"/>
      <path id="Path_2492" data-name="Path 2492" d="M572.136,463.987l9.961,1.8c1.667.3,2.023,1.575.6,2.154l-8.49,3.458c-.565.23-.9.606-.883,1.006l.165,6.017c.028,1.007-1.957,1.588-3.358.983l-8.37-3.614a3.432,3.432,0,0,0-1.937-.18l-9.858,1.914c-1.65.32-3.233-.594-2.678-1.546l3.316-5.692a.83.83,0,0,0-.313-1.117l-6.259-4.833c-1.047-.808-.041-1.954,1.7-1.939l10.421.1a2.8,2.8,0,0,0,1.742-.511l5.99-4.9c1-.82,3.208-.615,3.73.348l3.124,5.751A1.946,1.946,0,0,0,572.136,463.987Z" transform="translate(-543.573 -456.575)" fill="url(#linear-gradient-2)"/>
    </g>
    <g id="Group_1597" data-name="Group 1597" transform="translate(543.572 450.717)">
      <path id="Path_2493" data-name="Path 2493" d="M583.566,464.556v-3.077l-5.469,1.312-5.962-1.079a1.946,1.946,0,0,1-1.39-.8l-3.124-5.75c-.523-.963-2.728-1.168-3.73-.348l-5.991,4.9a2.788,2.788,0,0,1-1.742.51l-10.42-.1-.055,0-2.111-2.111v3.217l.043.024a.9.9,0,0,0,.42.806l6.259,4.833a.83.83,0,0,1,.313,1.117l-1.868,3.207-1.542-.254v2.991a.7.7,0,0,0,0,.294v.054l.016-.007c.209.693,1.46,1.2,2.756.952l9.858-1.915a3.435,3.435,0,0,1,1.936.181l8.371,3.614c1.4.6,3.386.023,3.358-.983l-.165-6.017c-.012-.4.319-.775.883-1.006l8.49-3.458C583.371,465.395,583.641,464.964,583.566,464.556Z" transform="translate(-543.572 -451.123)" fill="url(#linear-gradient)"/>
      <path id="Path_2494" data-name="Path 2494" d="M572.136,458.442l9.961,1.8c1.667.3,2.023,1.575.6,2.154l-8.49,3.458c-.565.229-.9.606-.883,1.006l.165,6.016c.028,1.008-1.957,1.589-3.358.983l-8.37-3.613a3.432,3.432,0,0,0-1.937-.181l-9.858,1.914c-1.65.321-3.233-.593-2.678-1.546l3.316-5.691a.83.83,0,0,0-.313-1.117l-6.259-4.833c-1.047-.809-.041-1.955,1.7-1.939l10.421.1a2.8,2.8,0,0,0,1.742-.51l5.99-4.9c1-.82,3.208-.615,3.73.348l3.124,5.751A1.949,1.949,0,0,0,572.136,458.442Z" transform="translate(-543.573 -451.031)" fill="url(#linear-gradient-2)"/>
    </g>
    <g id="Group_1598" data-name="Group 1598" transform="translate(543.572 445.328)">
      <path id="Path_2495" data-name="Path 2495" d="M583.566,459.011v-3.077l-5.469,1.312-5.962-1.08a1.949,1.949,0,0,1-1.39-.8l-3.124-5.751c-.523-.963-2.728-1.168-3.73-.348l-5.991,4.9a2.794,2.794,0,0,1-1.742.51l-10.42-.1c-.019,0-.036,0-.055,0l-2.111-2.111v3.218l.043.024a.9.9,0,0,0,.42.806l6.259,4.833a.83.83,0,0,1,.313,1.117l-1.868,3.206-1.542-.253v2.991a.7.7,0,0,0,0,.293v.055l.016-.007c.209.692,1.46,1.2,2.756.951l9.858-1.914a3.428,3.428,0,0,1,1.936.181l8.371,3.613c1.4.605,3.386.024,3.358-.983l-.165-6.016c-.012-.4.319-.776.883-1.006l8.49-3.458C583.371,459.849,583.641,459.419,583.566,459.011Z" transform="translate(-543.572 -445.578)" fill="url(#linear-gradient)"/>
      <path id="Path_2496" data-name="Path 2496" d="M572.136,452.9l9.961,1.8c1.667.3,2.023,1.574.6,2.153l-8.49,3.458c-.565.23-.9.606-.883,1.007l.165,6.016c.028,1.008-1.957,1.589-3.358.983l-8.37-3.613a3.423,3.423,0,0,0-1.937-.181l-9.858,1.914c-1.65.321-3.233-.593-2.678-1.546l3.316-5.691a.831.831,0,0,0-.313-1.118l-6.259-4.832c-1.047-.809-.041-1.955,1.7-1.94l10.421.1a2.8,2.8,0,0,0,1.742-.51l5.99-4.9c1-.821,3.208-.615,3.73.348l3.124,5.751A1.949,1.949,0,0,0,572.136,452.9Z" transform="translate(-543.573 -445.485)" fill="url(#linear-gradient-2)"/>
    </g>
    <g id="Group_1599" data-name="Group 1599" transform="translate(543.572 439.94)">
      <path id="Path_2497" data-name="Path 2497" d="M583.566,453.465v-3.076L578.1,451.7l-5.962-1.081a1.949,1.949,0,0,1-1.39-.8l-3.124-5.75c-.523-.963-2.728-1.169-3.73-.348l-5.991,4.9a2.8,2.8,0,0,1-1.742.51l-10.42-.1-.055,0-2.111-2.111v3.217l.043.025a.9.9,0,0,0,.42.806l6.259,4.833a.83.83,0,0,1,.313,1.117l-1.868,3.206-1.542-.253v2.991a.7.7,0,0,0,0,.293v.055l.016-.007c.209.692,1.46,1.2,2.756.951l9.858-1.914a3.419,3.419,0,0,1,1.936.181l8.371,3.613c1.4.605,3.386.024,3.358-.983l-.165-6.016c-.012-.4.319-.776.883-1.007l8.49-3.458C583.371,454.3,583.641,453.874,583.566,453.465Z" transform="translate(-543.572 -440.032)" fill="url(#linear-gradient)"/>
      <path id="Path_2498" data-name="Path 2498" d="M572.136,447.351l9.961,1.8c1.667.3,2.023,1.574.6,2.153l-8.49,3.458c-.565.23-.9.606-.883,1.007l.165,6.016c.028,1.007-1.957,1.588-3.358.983l-8.37-3.614a3.432,3.432,0,0,0-1.937-.18l-9.858,1.914c-1.65.321-3.233-.594-2.678-1.546l3.316-5.692a.83.83,0,0,0-.313-1.117l-6.259-4.832c-1.047-.809-.041-1.955,1.7-1.94l10.421.1a2.8,2.8,0,0,0,1.742-.51l5.99-4.9c1-.821,3.208-.615,3.73.347l3.124,5.751A1.949,1.949,0,0,0,572.136,447.351Z" transform="translate(-543.573 -439.94)" fill="url(#linear-gradient-2)"/>
    </g>
    <g id="Group_1600" data-name="Group 1600" transform="translate(560.561 474.218)">
      <path id="Path_2499" data-name="Path 2499" d="M601.05,488.741v-3.076l-5.469,1.312-5.962-1.08a1.953,1.953,0,0,1-1.39-.8l-3.124-5.751c-.524-.963-2.727-1.169-3.73-.348l-5.991,4.9a2.794,2.794,0,0,1-1.742.51l-10.42-.1c-.018,0-.037,0-.055,0l-2.111-2.111v3.218l.042.024a.9.9,0,0,0,.421.806l6.259,4.833a.829.829,0,0,1,.312,1.118l-1.868,3.206-1.541-.253v2.991a.693.693,0,0,0,0,.293v.055l.016-.007c.209.692,1.458,1.2,2.756.951l9.858-1.914a3.428,3.428,0,0,1,1.936.181l8.371,3.613c1.4.605,3.386.024,3.358-.983l-.166-6.016c-.011-.4.32-.776.884-1.006l8.489-3.458C600.855,489.58,601.125,489.15,601.05,488.741Z" transform="translate(-561.056 -475.309)" fill="url(#linear-gradient-11)"/>
      <path id="Path_2500" data-name="Path 2500" d="M589.62,482.627l9.961,1.8c1.667.3,2.023,1.574.6,2.153l-8.489,3.458c-.565.23-.895.606-.884,1.007l.166,6.016c.028,1.008-1.957,1.589-3.358.983l-8.371-3.613a3.419,3.419,0,0,0-1.936-.181l-9.858,1.914c-1.651.321-3.233-.594-2.678-1.546l3.315-5.691a.83.83,0,0,0-.312-1.118l-6.259-4.832c-1.047-.809-.041-1.955,1.7-1.94l10.421.1a2.8,2.8,0,0,0,1.742-.51l5.99-4.9c1-.821,3.207-.615,3.73.348l3.124,5.751A1.949,1.949,0,0,0,589.62,482.627Z" transform="translate(-561.057 -475.216)" fill="url(#linear-gradient-2)"/>
    </g>
    <g id="Group_1601" data-name="Group 1601" transform="translate(560.561 468.664)">
      <path id="Path_2501" data-name="Path 2501" d="M601.05,483.026v-3.077l-5.469,1.312-5.962-1.08a1.95,1.95,0,0,1-1.39-.8l-3.124-5.751c-.524-.963-2.727-1.168-3.73-.348l-5.991,4.9a2.789,2.789,0,0,1-1.742.51l-10.42-.1-.055,0-2.111-2.111v3.217l.042.024a.9.9,0,0,0,.421.806l6.259,4.833a.829.829,0,0,1,.312,1.117l-1.868,3.207-1.541-.254v2.991a.7.7,0,0,0,0,.294v.054l.016-.007c.209.693,1.458,1.2,2.756.951l9.858-1.914a3.427,3.427,0,0,1,1.936.181l8.371,3.614c1.4.6,3.386.023,3.358-.983l-.166-6.017c-.011-.4.32-.776.884-1.006l8.489-3.458C600.855,483.865,601.125,483.434,601.05,483.026Z" transform="translate(-561.056 -469.593)" fill="url(#linear-gradient-11)"/>
      <path id="Path_2502" data-name="Path 2502" d="M589.62,476.912l9.961,1.8c1.667.3,2.023,1.575.6,2.154l-8.489,3.458c-.565.229-.895.605-.884,1.006l.166,6.016c.028,1.008-1.957,1.589-3.358.983l-8.371-3.613a3.427,3.427,0,0,0-1.936-.181l-9.858,1.914c-1.651.321-3.233-.593-2.678-1.546l3.315-5.691a.829.829,0,0,0-.312-1.117l-6.259-4.833c-1.047-.809-.041-1.955,1.7-1.939l10.421.1a2.8,2.8,0,0,0,1.742-.51l5.99-4.9c1-.82,3.207-.615,3.73.348l3.124,5.751A1.953,1.953,0,0,0,589.62,476.912Z" transform="translate(-561.057 -469.501)" fill="url(#linear-gradient-2)"/>
    </g>
    <g id="Group_1602" data-name="Group 1602" transform="translate(560.561 463.11)">
      <path id="Path_2503" data-name="Path 2503" d="M601.05,477.31v-3.077l-5.469,1.312-5.962-1.08a1.946,1.946,0,0,1-1.39-.8l-3.124-5.751c-.524-.963-2.727-1.168-3.73-.348l-5.991,4.9a2.794,2.794,0,0,1-1.742.511l-10.42-.1-.055,0-2.111-2.111v3.217l.042.024a.9.9,0,0,0,.421.806l6.259,4.833a.829.829,0,0,1,.312,1.117l-1.868,3.207-1.541-.254v2.991a.7.7,0,0,0,0,.294v.054l.016-.007c.209.693,1.458,1.2,2.756.952l9.858-1.914a3.427,3.427,0,0,1,1.936.18l8.371,3.614c1.4.6,3.386.023,3.358-.983l-.166-6.017c-.011-.4.32-.775.884-1.006l8.489-3.458C600.855,478.149,601.125,477.719,601.05,477.31Z" transform="translate(-561.056 -463.877)" fill="url(#linear-gradient-11)"/>
      <path id="Path_2504" data-name="Path 2504" d="M589.62,471.2l9.961,1.8c1.667.3,2.023,1.575.6,2.154l-8.489,3.458c-.565.229-.895.606-.884,1.006l.166,6.016c.028,1.008-1.957,1.589-3.358.984L579.246,483a3.428,3.428,0,0,0-1.936-.181l-9.858,1.914c-1.651.321-3.233-.593-2.678-1.546l3.315-5.691a.829.829,0,0,0-.312-1.117l-6.259-4.833c-1.047-.809-.041-1.955,1.7-1.939l10.421.1a2.8,2.8,0,0,0,1.742-.51l5.99-4.9c1-.82,3.207-.615,3.73.348l3.124,5.751A1.949,1.949,0,0,0,589.62,471.2Z" transform="translate(-561.057 -463.784)" fill="url(#linear-gradient-2)"/>
    </g>
  </g>
</svg>
