<svg xmlns="http://www.w3.org/2000/svg" xmlns:xlink="http://www.w3.org/1999/xlink" width="88" height="88" viewBox="0 0 88 88">
  <defs>
    <linearGradient id="linear-gradient" x1="8.55" y1="8.264" x2="12.501" y2="9.13" gradientUnits="objectBoundingBox">
      <stop offset="0.301" stop-color="#f0f2fe"/>
      <stop offset="0.719" stop-color="#c8cdf0"/>
    </linearGradient>
    <linearGradient id="linear-gradient-3" x1="0.5" x2="0.5" y2="1" gradientUnits="objectBoundingBox">
      <stop offset="0" stop-color="#19ffed"/>
      <stop offset="1" stop-color="#1d87d5"/>
    </linearGradient>
    <linearGradient id="linear-gradient-4" x1="-0.451" y1="0.5" x2="0.892" y2="0.397" xlink:href="#linear-gradient-3"/>
    <linearGradient id="linear-gradient-5" x2="1.08" y2="1.61" xlink:href="#linear-gradient-3"/>
    <linearGradient id="linear-gradient-6" x1="1.243" y1="-0.075" y2="1.331" xlink:href="#linear-gradient-3"/>
    <linearGradient id="linear-gradient-7" x1="0.425" y1="0.207" x2="0.548" y2="0.701" gradientUnits="objectBoundingBox">
      <stop offset="0" stop-color="#4bd6ed"/>
      <stop offset="1" stop-color="#1a50b2"/>
    </linearGradient>
    <linearGradient id="linear-gradient-8" x1="0" y1="0.5" x2="1" y2="0.5" xlink:href="#linear-gradient-7"/>
    <linearGradient id="linear-gradient-9" x1="2.501" y1="-3.252" x2="0.014" y2="1.412" xlink:href="#linear-gradient-7"/>
    <linearGradient id="linear-gradient-12" x1="0.432" y1="0.35" x2="0.611" y2="0.744" xlink:href="#linear-gradient-7"/>
    <linearGradient id="linear-gradient-14" x1="-0.943" y1="0.308" x2="-0.182" y2="0.409" xlink:href="#linear-gradient-7"/>
    <linearGradient id="linear-gradient-15" x1="-1.51" y1="1.057" x2="2.06" y2="0.068" xlink:href="#linear-gradient-7"/>
    <linearGradient id="linear-gradient-16" x1="-0.119" y1="0.642" x2="1.309" y2="0.314" xlink:href="#linear-gradient-7"/>
  </defs>
  <g id="Icon_Cash" data-name="Icon Cash" transform="translate(-305 -269)">
    <rect id="Rectangle_627" data-name="Rectangle 627" width="88" height="88" transform="translate(305 269)" fill="#fff" opacity="0"/>
    <g id="Group_2177" data-name="Group 2177" transform="translate(269 262.708)">
      <g id="Group_2181" data-name="Group 2181" transform="translate(69.661 46.897)" opacity="0.15" style="mix-blend-mode: multiply;isolation: isolate">
        <g id="Group_744" data-name="Group 744">
          <path id="Path_1227" data-name="Path 1227" d="M716.049,388.487l23.368,10.371,12.623-3.966,22.272,18.1L783.1,407.6c8.047-4.933,7.2-15.277.444-21.8C774.369,376.953,734.59,380.354,716.049,388.487Z" transform="translate(-738.448 -378.4)" fill="#1a50b2"/>
        </g>
      </g>
      <path id="Path_3026" data-name="Path 3026" d="M133.711,436.2h0a.584.584,0,0,1,.1-.171l1.574-1.848.008-.01.008-.01.006-.011.006-.01,0-.01,0-.01h0l0-.01,0-.01,0-.011v-.028l-.428-9.095a.168.168,0,0,1-.01.06h0a.194.194,0,0,1-.037.061l-1.574,1.848a.325.325,0,0,0-.023.028l-.021.029-.018.029a.318.318,0,0,0-.016.029c-.005.009-.01.019-.014.028a.274.274,0,0,0-.012.029h0l-.01.03a.254.254,0,0,0-.008.03c0,.01,0,.021-.006.031s0,.022,0,.033a.313.313,0,0,0,0,.035v.016l.428,9.094A.426.426,0,0,1,133.711,436.2Z" transform="translate(-84.244 -389.194)" fill="url(#linear-gradient)"/>
      <g id="Group_2180" data-name="Group 2180" transform="translate(41.361 -0.4)">
        <path id="Path_3026-2" data-name="Path 3026" d="M133.711,436.2h0a.584.584,0,0,1,.1-.171l1.574-1.848.008-.01.008-.01.006-.011.006-.01,0-.01,0-.01h0l0-.01,0-.01,0-.011v-.028l-.428-9.095a.168.168,0,0,1-.01.06h0a.194.194,0,0,1-.037.061l-1.574,1.848a.325.325,0,0,0-.023.028l-.021.029-.018.029a.318.318,0,0,0-.016.029c-.005.009-.01.019-.014.028a.274.274,0,0,0-.012.029h0l-.01.03a.254.254,0,0,0-.008.03c0,.01,0,.021-.006.031s0,.022,0,.033a.313.313,0,0,0,0,.035v.016l.428,9.094A.426.426,0,0,1,133.711,436.2Z" transform="translate(-84.244 -389.194)" fill="url(#linear-gradient)"/>
        <path id="Path_3027" data-name="Path 3027" d="M73.7,466.431l-.513-11c-.012-.188-.018-.373-.023-.554,0-.041,0-.078.006-.119,0-.2,0-.4.02-.593a1.069,1.069,0,0,1,0-.143.282.282,0,0,1,.006-.043c.009-.125.02-.245.031-.365s.03-.243.05-.366c0,0,0,0,0-.011,0-.036.012-.069.017-.1.017-.1.033-.2.051-.3s.039-.2.062-.3a.345.345,0,0,1,.013-.065c.013-.066.036-.133.05-.2.034-.143.073-.282.112-.422.009-.034.014-.066.023-.1,0-.011.008-.023.009-.034.018-.051.038-.1.056-.15.041-.136.084-.266.13-.4.017-.056.035-.107.053-.159s.036-.088.058-.13c.049-.128.1-.251.154-.375.022-.053.04-.1.06-.152s.041-.089.065-.138c.061-.121.12-.248.185-.371.025-.059.051-.118.079-.173.022-.038.04-.075.063-.113l.213-.38c.036-.073.078-.143.118-.207l.041-.059c.08-.138.169-.269.256-.4.039-.064.078-.128.122-.193a.377.377,0,0,1,.035-.047c.065-.092.126-.184.2-.278q.134-.19.273-.365c.085-.11.165-.218.252-.323.2-.249.416-.5.639-.74.074-.08.148-.161.225-.237.025-.029.054-.064.084-.094s.08-.078.121-.122c.163-.166.334-.334.507-.5l.091-.091a.211.211,0,0,1,.039-.033.4.4,0,0,1,.067-.058c.065-.063.135-.126.205-.19.211-.187.421-.374.645-.555a.165.165,0,0,0,.041-.029c.143-.118.3-.236.448-.357s.306-.234.466-.348c.02-.017.036-.028.051-.043s.036-.028.058-.039a.537.537,0,0,1,.082-.058c.109-.082.22-.16.335-.239s.251-.174.38-.258.237-.155.354-.23l.241-.157c.045-.03.091-.061.138-.087l.455-.273c.152-.091.309-.18.466-.272,0-.006.012-.009.021-.013.158-.088.311-.174.47-.258s.322-.174.483-.252a.873.873,0,0,1,.1-.054c.047-.025.09-.05.133-.069a1.35,1.35,0,0,0,.136-.066l1.366,10.775c-.106.046-.211.1-.311.144-.175.084-.354.169-.527.257-.126.062-.252.125-.372.19-.324.164-.642.336-.953.511a.04.04,0,0,1-.017.01c-.32.178-.624.361-.926.548-.125.082-.25.159-.375.241s-.238.151-.354.23-.256.172-.383.26c-.111.077-.226.156-.333.233-.069.048-.129.1-.194.145-.312.231-.619.465-.914.705-.036.032-.08.062-.116.095-.27.222-.528.45-.776.679-.066.058-.132.12-.2.182-.173.164-.34.331-.507.5-.067.073-.14.143-.207.215-.15.157-.294.316-.437.48l-.155.174c-.182.212-.358.429-.524.645-.021.028-.041.059-.066.088-.137.182-.272.369-.4.555-.054.079-.1.161-.158.24-.087.135-.174.266-.255.4-.051.088-.1.177-.159.266-.069.129-.143.256-.212.38l-.058.115-.085.171c-.061.122-.121.243-.181.369-.043.1-.086.2-.125.29-.054.125-.11.249-.153.375-.039.094-.077.193-.111.29-.047.132-.094.264-.135.4-.03.091-.059.187-.088.282-.039.14-.074.279-.109.417-.021.088-.047.178-.062.269-.046.2-.08.4-.115.6-.007.038-.013.08-.021.118-.035.245-.06.486-.081.727,0,.062,0,.127-.008.189-.01.2-.019.4-.019.594C73.7,466.1,73.7,466.27,73.7,466.431Z" transform="translate(-62.937 -399.344)" fill="#323d43"/>
        <path id="Path_3028" data-name="Path 3028" d="M140.164,448.407a10.179,10.179,0,0,0-2.39-5.858c-.165-.208-.34-.411-.519-.613l-.133-.148c-.182-.2-.367-.4-.562-.589l-.03-.028c-.187-.185-.383-.367-.582-.547l-.153-.137c-.21-.184-.424-.367-.646-.546l-.059-.046c-.208-.166-.422-.328-.639-.489l-.171-.125c-.048-.035-.1-.071-.144-.105-.1-.069-.2-.133-.3-.2-.141-.1-.281-.193-.424-.287s-.284-.18-.428-.269-.295-.184-.446-.273c-.043-.026-.084-.053-.128-.078-.155-.091-.315-.179-.474-.267l-.211-.119c-.268-.146-.54-.29-.818-.43l-.033-.016c-.405-.2-.822-.4-1.246-.586-.044-.02-.085-.042-.129-.061-.075-.033-.154-.062-.229-.1q-.44-.189-.891-.368c-.078-.031-.152-.065-.23-.1-.048-.019-.1-.035-.147-.053-.324-.124-.652-.243-.983-.359-.065-.023-.128-.048-.195-.071l-.041-.013q-.6-.2-1.209-.389l-.053-.017c-.1-.029-.2-.055-.293-.083-.288-.085-.578-.168-.871-.247l-.132-.038q-.42-.111-.846-.214l-1.036-.3-.022-.005-.046-.01-.045-.008-.046-.007-.032,0h-.013l-.047,0-.048,0-.049,0h-.1l-.055,0-.059.006-.013,0h-.009l-.045.006c-.03,0-.06.01-.089.016l-.023.006c-.032.007-.064.017-.1.026s-.057.016-.084.026-.059.024-.088.037-.042.016-.061.026l-.021.012-.023.013c-.013.008-.028.015-.04.023s-.039.025-.057.038l-.025.019-.007.005-.012.01c-.013.01-.025.021-.037.032l-.032.031-.028.03,0,0-1.582,1.857a.286.286,0,0,1-.064.057l0,0a.431.431,0,0,1-.054.027.47.47,0,0,1-.084.029c-.011,0-.022.007-.033.009h0a.575.575,0,0,1-.1.009h0a.578.578,0,0,1-.1-.007h0a.479.479,0,0,1-.089-.022h0a.35.35,0,0,1-.074-.037l0,0a.236.236,0,0,1-.058-.052l-4.843-8a.165.165,0,0,1-.023-.074l.428,9.094a.165.165,0,0,0,.023.074l4.843,8a.254.254,0,0,0,.05.047l.008,0,0,0,.012.008.018.01.018.008.017.007.01,0h0l.005,0,.016.005.016,0,.015,0,.016,0,.016,0h.016l.016,0h.108l.022,0,.024,0,.01,0h0l.015,0,.018-.006a.461.461,0,0,0,.084-.029c.005,0,.012,0,.018-.006l.03-.016.006,0,0,0,.012-.008.015-.012.014-.013.011-.011.011-.011v0l1.582-1.858a.794.794,0,0,1,.111-.106l.007-.005a.921.921,0,0,1,.123-.081l.022-.013c.026-.014.055-.026.083-.039s.057-.026.087-.037.056-.018.085-.026.062-.019.094-.026c.051-.012.1-.021.157-.028h.01a1.818,1.818,0,0,1,.188-.011h0a1.721,1.721,0,0,1,.191.01h0a1.57,1.57,0,0,1,.19.033l1.036.3c.329.08.655.165.979.252.292.078.58.161.868.246.116.034.234.066.349.1q.612.186,1.209.389c.079.027.155.056.234.084q.5.173.984.358c.127.049.252.1.379.15q.45.179.889.368c.12.051.241.1.359.156.424.189.84.383,1.246.587q.431.217.849.444c.073.04.143.081.214.121q.3.169.6.344c.152.09.3.182.448.274s.285.177.424.268.286.191.427.288.3.2.441.306l.171.125c.217.16.431.322.638.487l.06.048c.222.178.436.36.645.545l.155.137c.2.179.394.36.58.545l.031.029c.194.193.38.39.561.589l.133.147c.179.2.354.406.519.614a10.182,10.182,0,0,1,2.39,5.858Z" transform="translate(-77.308 -390.415)" fill="#323d43"/>
        <path id="Path_3030" data-name="Path 3030" d="M132.181,465.309l-3.819-5.7c10.658-3.717,14.891-11.509,9.41-18.405-2.971-3.738-8.241-6.515-14.391-8l-1.038-.3a1.432,1.432,0,0,0-1.353.329l-1.584,1.856a.49.49,0,0,1-.659.013l-4.847-8c-.078-.135.053-.286.275-.323l13.444-2.15a.452.452,0,0,1,.414.117.159.159,0,0,1-.01.218l-1.572,1.844a.461.461,0,0,0-.023.621.852.852,0,0,0,.37.255c8.745,2.065,16.245,5.979,20.452,11.269C155.232,449.005,148.469,460.412,132.181,465.309Z" transform="translate(-77.308 -389.072)" fill="url(#linear-gradient-3)"/>
        <path id="Path_3031" data-name="Path 3031" d="M111.918,486.721c.168-.049.332-.1.5-.151.254-.078.507-.155.756-.236.174-.056.344-.114.515-.172.236-.079.471-.159.7-.241.173-.061.342-.124.512-.187q.337-.124.667-.252c.169-.066.336-.132.5-.2q.323-.13.638-.264.246-.1.486-.209c.209-.091.413-.184.618-.279.156-.072.311-.143.465-.216.2-.1.4-.2.6-.3.1-.051.207-.1.307-.151.039-.02.076-.042.115-.062.365-.189.724-.381,1.073-.578l.033-.018c.36-.2.707-.412,1.049-.623l.1-.061c.112-.069.218-.141.327-.212.135-.087.271-.173.4-.261s.288-.2.431-.3.258-.178.384-.268c.03-.022.063-.043.093-.065.173-.125.34-.252.507-.379l.116-.087c.216-.168.429-.336.636-.507l.038-.033q.457-.379.881-.77c.024-.023.051-.044.076-.066.051-.047.1-.1.146-.143q.3-.281.579-.568c.045-.046.094-.09.138-.135s.064-.071.1-.107c.172-.181.337-.363.5-.548.046-.051.1-.1.141-.154.013-.015.024-.03.037-.045q.31-.363.6-.732l.006-.008c.022-.029.04-.058.062-.086.16-.212.315-.425.462-.64l.039-.055c.049-.072.092-.146.14-.219.1-.151.2-.3.292-.456.019-.031.04-.06.058-.091.043-.071.08-.143.121-.214.083-.144.165-.288.243-.433.022-.042.048-.082.069-.124.034-.065.062-.132.1-.2.071-.141.139-.283.2-.424.024-.051.052-.1.075-.155s.046-.116.071-.174c.061-.142.119-.284.174-.427.024-.061.053-.121.075-.183s.031-.1.049-.146c.054-.151.1-.3.151-.453.022-.07.049-.139.07-.209.012-.037.019-.075.03-.112.046-.159.086-.318.125-.477.019-.077.042-.153.06-.23.006-.024.008-.049.014-.073.049-.224.09-.449.126-.675.007-.042.017-.082.023-.124l0-.015q.061-.412.092-.827c0-.017,0-.033.005-.05,0-.054,0-.108.005-.161q.02-.339.021-.68c0-.044,0-.088,0-.132,0-.141-.006-.283-.013-.424l-.428-9.095c.009.186.008.371.008.556q0,.341-.021.68c0,.07-.005.141-.01.211-.021.277-.051.553-.092.828-.006.046-.017.091-.024.137q-.054.339-.126.677c-.022.1-.049.2-.074.3-.039.159-.08.318-.125.477-.031.107-.065.214-.1.322-.048.151-.1.3-.152.453-.039.11-.081.22-.123.329-.056.143-.114.285-.175.427-.048.11-.1.22-.146.329-.066.142-.134.284-.2.425-.054.107-.108.214-.164.32-.078.146-.16.29-.243.434-.059.1-.117.2-.178.306-.094.153-.193.306-.293.458-.06.091-.117.182-.178.272q-.221.322-.463.64c-.023.031-.044.063-.068.094-.189.247-.388.49-.594.732-.058.067-.119.133-.177.2-.162.184-.327.367-.5.548-.076.081-.156.161-.234.241q-.281.287-.58.568c-.074.07-.146.14-.221.209q-.425.391-.881.77-.328.273-.673.541l-.116.087q-.294.225-.6.445c-.126.091-.256.18-.385.269s-.284.2-.431.3-.268.175-.4.261-.284.183-.429.273c-.342.211-.69.421-1.049.623l-.03.016c-.35.2-.71.39-1.077.58-.139.072-.281.142-.422.213-.2.1-.4.2-.6.3-.153.073-.309.145-.465.216-.2.094-.409.188-.617.279-.161.071-.323.141-.487.209q-.316.134-.638.264c-.166.067-.333.134-.5.2q-.33.128-.667.252c-.17.063-.34.126-.512.187-.231.082-.467.162-.7.241-.171.058-.341.116-.515.173-.249.08-.5.158-.756.236-.166.051-.33.1-.5.151-.284.083-.573.163-.864.243-.143.039-.284.08-.43.119q-.656.173-1.33.334c-.538.128-1.079.245-1.622.357-.178.037-.357.069-.536.1-.368.072-.737.142-1.107.207-.209.036-.42.07-.63.1q-.56.091-1.121.173l-.4.056c-.516.07-1.033.135-1.551.191q-.989.108-1.983.183c-.214.016-.428.027-.641.041-.425.028-.85.055-1.276.074-.259.012-.519.019-.779.028-.366.012-.731.023-1.1.029-.273,0-.546.005-.819.006-.345,0-.689,0-1.033,0q-.417-.006-.834-.017-.5-.013-1-.034-.419-.017-.837-.04-.494-.027-.987-.062c-.278-.02-.556-.04-.833-.063-.327-.028-.654-.058-.979-.09-.275-.027-.55-.054-.823-.085-.327-.037-.654-.078-.98-.119-.268-.034-.537-.067-.8-.105-.332-.047-.661-.1-.991-.15-.259-.04-.52-.08-.778-.124-.342-.058-.682-.123-1.021-.186-.244-.046-.489-.089-.731-.137-.37-.074-.737-.155-1.1-.236-.241-.053-.483-.1-.722-.158q-.821-.192-1.629-.406-.866-.23-1.712-.485c-.168-.05-.333-.105-.5-.157-.406-.126-.81-.254-1.209-.389-.2-.067-.394-.137-.59-.207q-.579-.2-1.146-.418c-.286-.109-.573-.217-.854-.331l-.263-.105q-.634-.259-1.25-.534c-.1-.046-.2-.092-.3-.139q-.5-.228-.992-.466c-.105-.051-.212-.1-.317-.154q-.575-.285-1.131-.584l-.112-.059c-.395-.214-.781-.435-1.161-.659-.207-.122-.407-.248-.609-.374s-.421-.258-.626-.391-.388-.261-.581-.392c-.21-.143-.422-.284-.626-.43l-.215-.157c-.294-.215-.583-.433-.864-.655L64,470.649c-.314-.251-.618-.507-.914-.767-.069-.06-.137-.122-.2-.183q-.409-.366-.8-.743c-.028-.027-.058-.054-.086-.082-.275-.273-.539-.551-.8-.833l-.182-.2c-.256-.287-.5-.577-.739-.872a15.265,15.265,0,0,1-3.245-8.618l.333,9.523a14.227,14.227,0,0,0,3.34,8.189c.235.3.484.586.739.872.06.067.12.135.182.2.257.282.521.56.8.833l.086.082c.257.252.523.5.8.743l.2.182q.445.39.915.768l.156.122q.423.334.865.656c.071.052.142.1.214.156l.139.1c.159.113.327.22.489.331.193.13.382.263.579.39s.418.262.629.392.4.251.607.372l.112.069q.516.3,1.05.591l.112.058c.309.166.621.331.939.49.063.032.128.062.191.093.105.053.212.1.318.155q.49.239.993.467c.1.046.2.092.3.137.053.024.1.049.157.072q.539.238,1.093.462l.264.106c.178.072.354.144.534.214.1.04.214.076.32.116.377.144.76.282,1.145.418.13.046.255.1.385.141.068.023.138.044.206.066.4.134.8.263,1.206.388.137.043.27.09.408.132l.094.027q.846.253,1.711.485h0q.8.214,1.625.405l.177.041c.18.042.363.076.544.116.367.081.734.162,1.1.237l.147.031c.193.038.388.069.582.106.34.064.679.128,1.022.186l.205.037c.19.031.383.057.573.087.329.051.658.1.989.15l.259.039c.182.024.366.043.548.067.326.041.651.082.978.119.1.012.2.026.308.037.171.019.344.031.516.048.325.032.652.063.979.09.119.01.237.024.356.033.159.012.318.019.477.03q.493.035.988.062c.135.007.268.019.4.025s.289.009.433.015q.5.021,1,.034c.152,0,.3.012.454.015.126,0,.254,0,.381,0q.515.007,1.032,0c.168,0,.336,0,.505,0,.1,0,.21-.007.315-.008.364-.006.729-.017,1.093-.029.183-.006.367-.007.55-.015.078,0,.155-.01.232-.013.424-.019.849-.046,1.272-.074.175-.012.351-.017.525-.03.04,0,.079-.008.118-.011q.993-.076,1.983-.183l.045,0c.5-.055,1.006-.119,1.507-.187l.4-.056c.17-.024.342-.046.512-.072.205-.031.409-.069.614-.1s.418-.067.627-.1c.372-.065.742-.135,1.111-.207.178-.035.357-.067.534-.1l.135-.026q.747-.155,1.488-.331.675-.16,1.33-.334c.145-.039.286-.08.43-.119C111.344,486.884,111.634,486.8,111.918,486.721Z" transform="translate(-56.924 -401.298)" fill="url(#linear-gradient-4)"/>
        <path id="Path_3032" data-name="Path 3032" d="M118.253,482.557c-.943.286-1.922.551-2.93.789a62.639,62.639,0,0,1-28.022-.058,48.216,48.216,0,0,1-12.332-4.612l4.46-5.865a31.412,31.412,0,0,0,11.495,5.015,44.78,44.78,0,0,0,20.043.042,34.652,34.652,0,0,0,3.468-1.005Z" transform="translate(-63.379 -406.321)" fill="url(#linear-gradient-5)"/>
        <path id="Path_3101" data-name="Path 3101" d="M15506.233-4245.789s-8.978,3.022-9.722,9.684,5.541,10.547,5.541,10.547l-4.514,5.968s-12.066-5.644-11.422-16.332,12.735-16.878,20.116-17.777C15506.219-4250.022,15506.233-4245.789,15506.233-4245.789Z" transform="translate(-15486 4292)" fill="url(#linear-gradient-6)"/>
      </g>
      <g id="Group_2068" data-name="Group 2068" transform="translate(40 14.292)">
        <g id="Group_781" data-name="Group 781" transform="translate(14.258 7.595)">
          <g id="Group_778" data-name="Group 778" transform="translate(0 0.007)">
            <g id="Group_777" data-name="Group 777" style="isolation: isolate">
              <g id="Group_774" data-name="Group 774" transform="translate(0 22.691)">
                <path id="Path_1243" data-name="Path 1243" d="M727.19,401.992a23.007,23.007,0,0,1,0,7.636l18.87,10.97a36.89,36.89,0,0,0,0-7.636Z" transform="translate(-727.19 -401.992)" fill="#323d43"/>
              </g>
              <g id="Group_775" data-name="Group 775" transform="translate(18.871 10.97)">
                <path id="Path_1244" data-name="Path 1244" d="M750.974,409.91a40.535,40.535,0,0,1,0,7.636l39.317-22.691a47.257,47.257,0,0,0,0-7.637Z" transform="translate(-750.974 -387.219)" fill="url(#linear-gradient-7)"/>
              </g>
              <g id="Group_776" data-name="Group 776">
                <path id="Path_1245" data-name="Path 1245" d="M727.19,396.084l18.871,10.971,39.316-22.691-18.871-10.971Z" transform="translate(-727.19 -373.392)" fill="#c8cdf0"/>
              </g>
            </g>
          </g>
          <g id="Group_780" data-name="Group 780" transform="translate(0)">
            <g id="Group_779" data-name="Group 779" transform="translate(20.368 11.747)">
              <path id="Path_1246" data-name="Path 1246" d="M755.419,389.671c5.032-2.875,13.544-1.327,14.912,2.567,1.479,4.206-6.354,7.471-12.922,5.388C752.287,396,751.3,392.03,755.419,389.671Z" transform="translate(-752.861 -388.188)" fill="url(#linear-gradient-8)"/>
            </g>
            <path id="Path_1247" data-name="Path 1247" d="M775.546,386.6a6.532,6.532,0,0,0,5.911,0c1.633-.943,1.634-2.471,0-3.413a6.533,6.533,0,0,0-5.912,0C773.914,384.133,773.913,385.661,775.546,386.6Z" transform="translate(-736.927 -375.263)" fill="url(#linear-gradient-9)"/>
            <ellipse id="Ellipse_88" data-name="Ellipse 88" cx="4.18" cy="2.413" rx="4.18" ry="2.413" transform="translate(12.764 21.437)" fill="url(#linear-gradient-8)"/>
            <path id="Path_1248" data-name="Path 1248" d="M727.19,396.082c.831.48,18.033,10.487,18.87,10.971l39.317-22.692c-.983-.567-17.913-10.426-18.868-10.978Zm6.924,1.509a2.629,2.629,0,0,0,0-3.155l29.66-17.119a12.441,12.441,0,0,0,5.465,0l9.4,5.429a2.629,2.629,0,0,0,0,3.155L749.1,402.947a12.367,12.367,0,0,0-5.911-.114Z" transform="translate(-727.19 -373.383)" fill="url(#linear-gradient-8)"/>
          </g>
        </g>
        <g id="Group_789" data-name="Group 789" transform="translate(0 0)">
          <g id="Group_786" data-name="Group 786" transform="translate(0 0.008)">
            <g id="Group_785" data-name="Group 785" style="isolation: isolate">
              <g id="Group_782" data-name="Group 782" transform="translate(0 31.437)">
                <path id="Path_1249" data-name="Path 1249" d="M709.219,403.443a23,23,0,0,1,1.826,7.414L731.993,417a36.871,36.871,0,0,0-1.827-7.414Z" transform="translate(-709.219 -403.443)" fill="#323d43"/>
              </g>
              <g id="Group_783" data-name="Group 783" transform="translate(20.947 6.138)">
                <path id="Path_1250" data-name="Path 1250" d="M735.62,402.994a40.6,40.6,0,0,1,1.827,7.414L770.2,378.971a47.456,47.456,0,0,0-1.827-7.414Z" transform="translate(-735.62 -371.557)" fill="url(#linear-gradient-12)"/>
              </g>
              <g id="Group_784" data-name="Group 784">
                <path id="Path_1251" data-name="Path 1251" d="M709.219,395.257l20.947,6.138,32.748-31.437-20.947-6.139Z" transform="translate(-709.219 -363.821)" fill="#c8cdf0"/>
              </g>
            </g>
          </g>
          <g id="Group_788" data-name="Group 788" transform="translate(0)">
            <g id="Group_787" data-name="Group 787" transform="translate(18.272 13.404)">
              <path id="Path_1252" data-name="Path 1252" d="M733.971,384.067c4.2-4,12.833-4.529,15.094-1.074,2.441,3.73-4.382,8.773-11.258,8.321C732.445,390.964,730.541,387.342,733.971,384.067Z" transform="translate(-732.248 -380.704)" fill="url(#linear-gradient-8)"/>
            </g>
            <ellipse id="Ellipse_89" data-name="Ellipse 89" cx="4.18" cy="2.413" rx="4.18" ry="2.413" transform="translate(32.607 7.472) rotate(-13.839)" fill="url(#linear-gradient-14)"/>
            <ellipse id="Ellipse_90" data-name="Ellipse 90" cx="4.18" cy="2.413" rx="4.18" ry="2.413" transform="translate(12.091 27.168) rotate(-13.839)" fill="url(#linear-gradient-15)"/>
            <path id="Path_1253" data-name="Path 1253" d="M709.219,395.255c.922.267,20.017,5.87,20.947,6.139l32.748-31.437c-1.09-.316-19.886-5.84-20.946-6.147Zm7.083-.191A2.629,2.629,0,0,0,715.55,392l24.705-23.716a12.444,12.444,0,0,0,5.306-1.307L755.985,370a2.63,2.63,0,0,0,.753,3.064l-24.6,23.616a12.379,12.379,0,0,0-5.767,1.3Z" transform="translate(-709.219 -363.81)" fill="url(#linear-gradient-16)"/>
          </g>
        </g>
      </g>
    </g>
  </g>
</svg>
