<?xml version="1.0" encoding="utf-8"?>
<!-- Generator: Adobe Illustrator 25.2.3, SVG Export Plug-In . SVG Version: 6.00 Build 0)  -->
<svg version="1.1" id="Layer_1" xmlns="http://www.w3.org/2000/svg" xmlns:xlink="http://www.w3.org/1999/xlink" x="0px" y="0px"
	 width="520px" height="195px" viewBox="0 0 520 195" style="enable-background:new 0 0 520 195;" xml:space="preserve">
<style type="text/css">
	.st0{fill:none;stroke:#FFFFFF;stroke-width:2;stroke-linecap:round;}
	.st1{fill:none;stroke:#FFFFFF;stroke-width:2;stroke-linecap:round;stroke-dasharray:960,60;}
	.st2{fill:none;stroke:#FFFFFF;stroke-width:2;stroke-dasharray:960,60;}
</style>
<g>
	<path class="st0" d="M184.4,192.6h315.9c10,0,18.1-8.1,18.1-18.1v-41.5c0-10-8.1-18.1-18.1-18.1H19.7c-10,0-18.1,8.1-18.1,18.1
		v41.5c0,10,8.1,18.1,18.1,18.1H68"/>
	<g>
		<path class="st1" d="M276.5,110.1h37.6c29.7,0,53.9-24.1,53.9-53.9l0,0c0-29.7-24.1-53.8-53.9-53.8l0,0
			c-29.7,0-53.9,24.1-53.9,53.9v53.9"/>
		<path class="st2" d="M259.9,110.1h-53.9c-29.7,0-53.9-24.1-53.9-53.9l0,0c0-29.7,24.2-53.8,53.9-53.8l0,0
			c29.7,0,53.9,24.1,53.9,53.9V110.1z"/>
	</g>
</g>
</svg>
