<?xml version="1.0" encoding="utf-8"?>
<!-- Generator: Adobe Illustrator 25.2.3, SVG Export Plug-In . SVG Version: 6.00 Build 0)  -->
<svg version="1.1" id="Layer_1" xmlns="http://www.w3.org/2000/svg" xmlns:xlink="http://www.w3.org/1999/xlink" x="0px" y="0px"
	 width="768px" height="288px" viewBox="0 0 768 288" style="enable-background:new 0 0 768 288;" xml:space="preserve">
<style type="text/css">
	.st0{fill:none;stroke:#FFFFFF;stroke-width:2;stroke-linecap:round;}
	.st1{fill:none;stroke:#FFFFFF;stroke-width:2;stroke-linecap:round;stroke-dasharray:960,60;}
	.st2{fill:none;stroke:#FFFFFF;stroke-width:2;stroke-dasharray:960,60;}
</style>
<g>
	<path class="st0" d="M272.1,284.8h467.6c14.8,0,26.8-12,26.8-26.8v-61.4c0-14.8-12-26.8-26.8-26.8H28.3c-14.8,0-26.8,12-26.8,26.8
		V258c0,14.8,12,26.8,26.8,26.8h71.5"/>
	<g>
		<path class="st1" d="M408.4,162.7h55.7c44,0,79.8-35.7,79.8-79.8l0,0c0-44-35.7-79.6-79.8-79.6l0,0c-44,0-79.8,35.7-79.8,79.8
			v79.8"/>
		<path class="st2" d="M383.9,162.7h-79.8c-44,0-79.8-35.7-79.8-79.8l0,0c0-44,35.8-79.6,79.8-79.6l0,0c44,0,79.8,35.7,79.8,79.8
			V162.7z"/>
	</g>
</g>
</svg>
