<svg xmlns="http://www.w3.org/2000/svg" xmlns:xlink="http://www.w3.org/1999/xlink" width="67.434" height="51.448" viewBox="0 0 67.434 51.448">
  <defs>
    <linearGradient id="linear-gradient" y1="0.5" x2="1" y2="0.5" gradientUnits="objectBoundingBox">
      <stop offset="0" stop-color="#82e3fc"/>
      <stop offset="1" stop-color="#3665fc"/>
    </linearGradient>
  </defs>
  <g id="Group_1435" data-name="Group 1435" transform="translate(1.306 -9.294) rotate(8)">
    <g id="Group_1436" data-name="Group 1436" transform="translate(0 9.385) rotate(-8)">
      <path id="Path_2291" data-name="Path 2291" d="M4.235,0H40.723a4.233,4.233,0,0,1,4.234,4.234V31.375a4.233,4.233,0,0,1-4.234,4.234H35.605v6.314L16.859,35.609H4.235A4.234,4.234,0,0,1,0,31.375V4.234A4.234,4.234,0,0,1,4.235,0Z" transform="translate(22.478 9.524)" fill="#c8cdf0"/>
      <path id="Path_2292" data-name="Path 2292" d="M40.721,0H4.234A4.233,4.233,0,0,0,0,4.234V31.375a4.233,4.233,0,0,0,4.234,4.234H9.351v6.314L28.1,35.609H40.721a4.234,4.234,0,0,0,4.235-4.234V4.234A4.234,4.234,0,0,0,40.721,0Z" transform="translate(0 0)" fill="url(#linear-gradient)"/>
    </g>
  </g>
</svg>
