<svg xmlns="http://www.w3.org/2000/svg" xmlns:xlink="http://www.w3.org/1999/xlink" width="88" height="88" viewBox="0 0 88 88">
  <defs>
    <linearGradient id="linear-gradient" x1="8.55" y1="8.264" x2="12.501" y2="9.13" gradientUnits="objectBoundingBox">
      <stop offset="0.301" stop-color="#f0f2fe"/>
      <stop offset="0.719" stop-color="#c8cdf0"/>
    </linearGradient>
    <linearGradient id="linear-gradient-2" x1="0.5" x2="0.5" y2="1" gradientUnits="objectBoundingBox">
      <stop offset="0" stop-color="#19ffed"/>
      <stop offset="1" stop-color="#1d87d5"/>
    </linearGradient>
    <linearGradient id="linear-gradient-3" x1="-0.451" y1="0.5" x2="0.892" y2="0.397" xlink:href="#linear-gradient-2"/>
    <linearGradient id="linear-gradient-4" x2="1.08" y2="1.61" xlink:href="#linear-gradient-2"/>
    <linearGradient id="linear-gradient-5" x1="1.243" y1="-0.075" y2="1.331" xlink:href="#linear-gradient-2"/>
    <linearGradient id="linear-gradient-6" x1="-0.173" y1="0.5" x2="0.616" y2="0.5" gradientUnits="objectBoundingBox">
      <stop offset="0" stop-color="#4bd6ed"/>
      <stop offset="1" stop-color="#1a50b2"/>
    </linearGradient>
    <linearGradient id="linear-gradient-7" x1="-0.177" y1="0.5" x2="0.613" y2="0.5" xlink:href="#linear-gradient-6"/>
    <linearGradient id="linear-gradient-8" x1="-0.552" y1="0.5" x2="0.904" y2="0.5" xlink:href="#linear-gradient-6"/>
    <linearGradient id="linear-gradient-9" x1="-0.594" y1="0.5" x2="0.963" y2="0.5" xlink:href="#linear-gradient-6"/>
    <linearGradient id="linear-gradient-10" x1="-0.288" y1="0" x2="0.184" y2="1.114" xlink:href="#linear-gradient"/>
    <linearGradient id="linear-gradient-11" x1="0" y1="0.5" x2="1" y2="0.5" xlink:href="#linear-gradient-6"/>
    <linearGradient id="linear-gradient-12" x1="-0.187" y1="-0.169" x2="0.365" y2="1.106" xlink:href="#linear-gradient"/>
    <linearGradient id="linear-gradient-13" x1="-0.247" y1="0.131" x2="0.293" y2="1.062" xlink:href="#linear-gradient"/>
    <linearGradient id="linear-gradient-14" x1="0.061" y1="0.03" x2="1.209" y2="0.954" xlink:href="#linear-gradient-2"/>
  </defs>
  <g id="Icon_Refinace" data-name="Icon Refinace" transform="translate(-422 -269)">
    <rect id="Rectangle_626" data-name="Rectangle 626" width="88" height="88" transform="translate(422 269)" fill="#fff" opacity="0"/>
    <g id="Group_2178" data-name="Group 2178" transform="translate(426.908 262.707)">
      <g id="Group_2182" data-name="Group 2182" transform="translate(28.491 46.607)" opacity="0.15" style="mix-blend-mode: multiply;isolation: isolate">
        <g id="Group_744" data-name="Group 744">
          <path id="Path_1227" data-name="Path 1227" d="M714.5,390.646l28.5,9.829,12.491-3.539,18.818,16.054L783.1,407.6c8.047-4.933,7.2-15.277.444-21.8C774.369,376.953,729.55,376.175,714.5,390.646Z" transform="translate(-738.448 -378.4)" fill="#1a50b2"/>
        </g>
      </g>
      <g id="Group_2179" data-name="Group 2179">
        <path id="Path_3026" data-name="Path 3026" d="M133.711,436.2h0a.584.584,0,0,1,.1-.171l1.574-1.848.008-.01.008-.01.006-.011.006-.01,0-.01,0-.01h0l0-.01,0-.01,0-.011v-.028l-.428-9.095a.168.168,0,0,1-.01.06h0a.194.194,0,0,1-.037.061l-1.574,1.848a.325.325,0,0,0-.023.028l-.021.029-.018.029a.318.318,0,0,0-.016.029c-.005.009-.01.019-.014.028a.274.274,0,0,0-.012.029h0l-.01.03a.254.254,0,0,0-.008.03c0,.01,0,.021-.006.031s0,.022,0,.033a.313.313,0,0,0,0,.035v.016l.428,9.094A.426.426,0,0,1,133.711,436.2Z" transform="translate(-84.244 -389.194)" fill="url(#linear-gradient)"/>
        <path id="Path_3027" data-name="Path 3027" d="M73.7,466.431l-.513-11c-.012-.188-.018-.373-.023-.554,0-.041,0-.078.006-.119,0-.2,0-.4.02-.593a1.069,1.069,0,0,1,0-.143.282.282,0,0,1,.006-.043c.009-.125.02-.245.031-.365s.03-.243.05-.366c0,0,0,0,0-.011,0-.036.012-.069.017-.1.017-.1.033-.2.051-.3s.039-.2.062-.3a.345.345,0,0,1,.013-.065c.013-.066.036-.133.05-.2.034-.143.073-.282.112-.422.009-.034.014-.066.023-.1,0-.011.008-.023.009-.034.018-.051.038-.1.056-.15.041-.136.084-.266.13-.4.017-.056.035-.107.053-.159s.036-.088.058-.13c.049-.128.1-.251.154-.375.022-.053.04-.1.06-.152s.041-.089.065-.138c.061-.121.12-.248.185-.371.025-.059.051-.118.079-.173.022-.038.04-.075.063-.113l.213-.38c.036-.073.078-.143.118-.207l.041-.059c.08-.138.169-.269.256-.4.039-.064.078-.128.122-.193a.377.377,0,0,1,.035-.047c.065-.092.126-.184.2-.278q.134-.19.273-.365c.085-.11.165-.218.252-.323.2-.249.416-.5.639-.74.074-.08.148-.161.225-.237.025-.029.054-.064.084-.094s.08-.078.121-.122c.163-.166.334-.334.507-.5l.091-.091a.211.211,0,0,1,.039-.033.4.4,0,0,1,.067-.058c.065-.063.135-.126.205-.19.211-.187.421-.374.645-.555a.165.165,0,0,0,.041-.029c.143-.118.3-.236.448-.357s.306-.234.466-.348c.02-.017.036-.028.051-.043s.036-.028.058-.039a.537.537,0,0,1,.082-.058c.109-.082.22-.16.335-.239s.251-.174.38-.258.237-.155.354-.23l.241-.157c.045-.03.091-.061.138-.087l.455-.273c.152-.091.309-.18.466-.272,0-.006.012-.009.021-.013.158-.088.311-.174.47-.258s.322-.174.483-.252a.873.873,0,0,1,.1-.054c.047-.025.09-.05.133-.069a1.35,1.35,0,0,0,.136-.066l1.366,10.775c-.106.046-.211.1-.311.144-.175.084-.354.169-.527.257-.126.062-.252.125-.372.19-.324.164-.642.336-.953.511a.04.04,0,0,1-.017.01c-.32.178-.624.361-.926.548-.125.082-.25.159-.375.241s-.238.151-.354.23-.256.172-.383.26c-.111.077-.226.156-.333.233-.069.048-.129.1-.194.145-.312.231-.619.465-.914.705-.036.032-.08.062-.116.095-.27.222-.528.45-.776.679-.066.058-.132.12-.2.182-.173.164-.34.331-.507.5-.067.073-.14.143-.207.215-.15.157-.294.316-.437.48l-.155.174c-.182.212-.358.429-.524.645-.021.028-.041.059-.066.088-.137.182-.272.369-.4.555-.054.079-.1.161-.158.24-.087.135-.174.266-.255.4-.051.088-.1.177-.159.266-.069.129-.143.256-.212.38l-.058.115-.085.171c-.061.122-.121.243-.181.369-.043.1-.086.2-.125.29-.054.125-.11.249-.153.375-.039.094-.077.193-.111.29-.047.132-.094.264-.135.4-.03.091-.059.187-.088.282-.039.14-.074.279-.109.417-.021.088-.047.178-.062.269-.046.2-.08.4-.115.6-.007.038-.013.08-.021.118-.035.245-.06.486-.081.727,0,.062,0,.127-.008.189-.01.2-.019.4-.019.594C73.7,466.1,73.7,466.27,73.7,466.431Z" transform="translate(-62.937 -399.344)" fill="#323d43"/>
        <path id="Path_3028" data-name="Path 3028" d="M140.164,448.407a10.179,10.179,0,0,0-2.39-5.858c-.165-.208-.34-.411-.519-.613l-.133-.148c-.182-.2-.367-.4-.562-.589l-.03-.028c-.187-.185-.383-.367-.582-.547l-.153-.137c-.21-.184-.424-.367-.646-.546l-.059-.046c-.208-.166-.422-.328-.639-.489l-.171-.125c-.048-.035-.1-.071-.144-.105-.1-.069-.2-.133-.3-.2-.141-.1-.281-.193-.424-.287s-.284-.18-.428-.269-.295-.184-.446-.273c-.043-.026-.084-.053-.128-.078-.155-.091-.315-.179-.474-.267l-.211-.119c-.268-.146-.54-.29-.818-.43l-.033-.016c-.405-.2-.822-.4-1.246-.586-.044-.02-.085-.042-.129-.061-.075-.033-.154-.062-.229-.1q-.44-.189-.891-.368c-.078-.031-.152-.065-.23-.1-.048-.019-.1-.035-.147-.053-.324-.124-.652-.243-.983-.359-.065-.023-.128-.048-.195-.071l-.041-.013q-.6-.2-1.209-.389l-.053-.017c-.1-.029-.2-.055-.293-.083-.288-.085-.578-.168-.871-.247l-.132-.038q-.42-.111-.846-.214l-1.036-.3-.022-.005-.046-.01-.045-.008-.046-.007-.032,0h-.013l-.047,0-.048,0-.049,0h-.1l-.055,0-.059.006-.013,0h-.009l-.045.006c-.03,0-.06.01-.089.016l-.023.006c-.032.007-.064.017-.1.026s-.057.016-.084.026-.059.024-.088.037-.042.016-.061.026l-.021.012-.023.013c-.013.008-.028.015-.04.023s-.039.025-.057.038l-.025.019-.007.005-.012.01c-.013.01-.025.021-.037.032l-.032.031-.028.03,0,0-1.582,1.857a.286.286,0,0,1-.064.057l0,0a.431.431,0,0,1-.054.027.47.47,0,0,1-.084.029c-.011,0-.022.007-.033.009h0a.575.575,0,0,1-.1.009h0a.578.578,0,0,1-.1-.007h0a.479.479,0,0,1-.089-.022h0a.35.35,0,0,1-.074-.037l0,0a.236.236,0,0,1-.058-.052l-4.843-8a.165.165,0,0,1-.023-.074l.428,9.094a.165.165,0,0,0,.023.074l4.843,8a.254.254,0,0,0,.05.047l.008,0,0,0,.012.008.018.01.018.008.017.007.01,0h0l.005,0,.016.005.016,0,.015,0,.016,0,.016,0h.016l.016,0h.108l.022,0,.024,0,.01,0h0l.015,0,.018-.006a.461.461,0,0,0,.084-.029c.005,0,.012,0,.018-.006l.03-.016.006,0,0,0,.012-.008.015-.012.014-.013.011-.011.011-.011v0l1.582-1.858a.794.794,0,0,1,.111-.106l.007-.005a.921.921,0,0,1,.123-.081l.022-.013c.026-.014.055-.026.083-.039s.057-.026.087-.037.056-.018.085-.026.062-.019.094-.026c.051-.012.1-.021.157-.028h.01a1.818,1.818,0,0,1,.188-.011h0a1.721,1.721,0,0,1,.191.01h0a1.57,1.57,0,0,1,.19.033l1.036.3c.329.08.655.165.979.252.292.078.58.161.868.246.116.034.234.066.349.1q.612.186,1.209.389c.079.027.155.056.234.084q.5.173.984.358c.127.049.252.1.379.15q.45.179.889.368c.12.051.241.1.359.156.424.189.84.383,1.246.587q.431.217.849.444c.073.04.143.081.214.121q.3.169.6.344c.152.09.3.182.448.274s.285.177.424.268.286.191.427.288.3.2.441.306l.171.125c.217.16.431.322.638.487l.06.048c.222.178.436.36.645.545l.155.137c.2.179.394.36.58.545l.031.029c.194.193.38.39.561.589l.133.147c.179.2.354.406.519.614a10.182,10.182,0,0,1,2.39,5.858Z" transform="translate(-77.308 -390.415)" fill="#323d43"/>
        <path id="Path_3030" data-name="Path 3030" d="M132.181,465.309l-3.819-5.7c10.658-3.717,14.891-11.509,9.41-18.405-2.971-3.738-8.241-6.515-14.391-8l-1.038-.3a1.432,1.432,0,0,0-1.353.329l-1.584,1.856a.49.49,0,0,1-.659.013l-4.847-8c-.078-.135.053-.286.275-.323l13.444-2.15a.452.452,0,0,1,.414.117.159.159,0,0,1-.01.218l-1.572,1.844a.461.461,0,0,0-.023.621.852.852,0,0,0,.37.255c8.745,2.065,16.245,5.979,20.452,11.269C155.232,449.005,148.469,460.412,132.181,465.309Z" transform="translate(-77.308 -389.072)" fill="url(#linear-gradient-2)"/>
        <path id="Path_3031" data-name="Path 3031" d="M111.918,486.721c.168-.049.332-.1.5-.151.254-.078.507-.155.756-.236.174-.056.344-.114.515-.172.236-.079.471-.159.7-.241.173-.061.342-.124.512-.187q.337-.124.667-.252c.169-.066.336-.132.5-.2q.323-.13.638-.264.246-.1.486-.209c.209-.091.413-.184.618-.279.156-.072.311-.143.465-.216.2-.1.4-.2.6-.3.1-.051.207-.1.307-.151.039-.02.076-.042.115-.062.365-.189.724-.381,1.073-.578l.033-.018c.36-.2.707-.412,1.049-.623l.1-.061c.112-.069.218-.141.327-.212.135-.087.271-.173.4-.261s.288-.2.431-.3.258-.178.384-.268c.03-.022.063-.043.093-.065.173-.125.34-.252.507-.379l.116-.087c.216-.168.429-.336.636-.507l.038-.033q.457-.379.881-.77c.024-.023.051-.044.076-.066.051-.047.1-.1.146-.143q.3-.281.579-.568c.045-.046.094-.09.138-.135s.064-.071.1-.107c.172-.181.337-.363.5-.548.046-.051.1-.1.141-.154.013-.015.024-.03.037-.045q.31-.363.6-.732l.006-.008c.022-.029.04-.058.062-.086.16-.212.315-.425.462-.64l.039-.055c.049-.072.092-.146.14-.219.1-.151.2-.3.292-.456.019-.031.04-.06.058-.091.043-.071.08-.143.121-.214.083-.144.165-.288.243-.433.022-.042.048-.082.069-.124.034-.065.062-.132.1-.2.071-.141.139-.283.2-.424.024-.051.052-.1.075-.155s.046-.116.071-.174c.061-.142.119-.284.174-.427.024-.061.053-.121.075-.183s.031-.1.049-.146c.054-.151.1-.3.151-.453.022-.07.049-.139.07-.209.012-.037.019-.075.03-.112.046-.159.086-.318.125-.477.019-.077.042-.153.06-.23.006-.024.008-.049.014-.073.049-.224.09-.449.126-.675.007-.042.017-.082.023-.124l0-.015q.061-.412.092-.827c0-.017,0-.033.005-.05,0-.054,0-.108.005-.161q.02-.339.021-.68c0-.044,0-.088,0-.132,0-.141-.006-.283-.013-.424l-.428-9.095c.009.186.008.371.008.556q0,.341-.021.68c0,.07-.005.141-.01.211-.021.277-.051.553-.092.828-.006.046-.017.091-.024.137q-.054.339-.126.677c-.022.1-.049.2-.074.3-.039.159-.08.318-.125.477-.031.107-.065.214-.1.322-.048.151-.1.3-.152.453-.039.11-.081.22-.123.329-.056.143-.114.285-.175.427-.048.11-.1.22-.146.329-.066.142-.134.284-.2.425-.054.107-.108.214-.164.32-.078.146-.16.29-.243.434-.059.1-.117.2-.178.306-.094.153-.193.306-.293.458-.06.091-.117.182-.178.272q-.221.322-.463.64c-.023.031-.044.063-.068.094-.189.247-.388.49-.594.732-.058.067-.119.133-.177.2-.162.184-.327.367-.5.548-.076.081-.156.161-.234.241q-.281.287-.58.568c-.074.07-.146.14-.221.209q-.425.391-.881.77-.328.273-.673.541l-.116.087q-.294.225-.6.445c-.126.091-.256.18-.385.269s-.284.2-.431.3-.268.175-.4.261-.284.183-.429.273c-.342.211-.69.421-1.049.623l-.03.016c-.35.2-.71.39-1.077.58-.139.072-.281.142-.422.213-.2.1-.4.2-.6.3-.153.073-.309.145-.465.216-.2.094-.409.188-.617.279-.161.071-.323.141-.487.209q-.316.134-.638.264c-.166.067-.333.134-.5.2q-.33.128-.667.252c-.17.063-.34.126-.512.187-.231.082-.467.162-.7.241-.171.058-.341.116-.515.173-.249.08-.5.158-.756.236-.166.051-.33.1-.5.151-.284.083-.573.163-.864.243-.143.039-.284.08-.43.119q-.656.173-1.33.334c-.538.128-1.079.245-1.622.357-.178.037-.357.069-.536.1-.368.072-.737.142-1.107.207-.209.036-.42.07-.63.1q-.56.091-1.121.173l-.4.056c-.516.07-1.033.135-1.551.191q-.989.108-1.983.183c-.214.016-.428.027-.641.041-.425.028-.85.055-1.276.074-.259.012-.519.019-.779.028-.366.012-.731.023-1.1.029-.273,0-.546.005-.819.006-.345,0-.689,0-1.033,0q-.417-.006-.834-.017-.5-.013-1-.034-.419-.017-.837-.04-.494-.027-.987-.062c-.278-.02-.556-.04-.833-.063-.327-.028-.654-.058-.979-.09-.275-.027-.55-.054-.823-.085-.327-.037-.654-.078-.98-.119-.268-.034-.537-.067-.8-.105-.332-.047-.661-.1-.991-.15-.259-.04-.52-.08-.778-.124-.342-.058-.682-.123-1.021-.186-.244-.046-.489-.089-.731-.137-.37-.074-.737-.155-1.1-.236-.241-.053-.483-.1-.722-.158q-.821-.192-1.629-.406-.866-.23-1.712-.485c-.168-.05-.333-.105-.5-.157-.406-.126-.81-.254-1.209-.389-.2-.067-.394-.137-.59-.207q-.579-.2-1.146-.418c-.286-.109-.573-.217-.854-.331l-.263-.105q-.634-.259-1.25-.534c-.1-.046-.2-.092-.3-.139q-.5-.228-.992-.466c-.105-.051-.212-.1-.317-.154q-.575-.285-1.131-.584l-.112-.059c-.395-.214-.781-.435-1.161-.659-.207-.122-.407-.248-.609-.374s-.421-.258-.626-.391-.388-.261-.581-.392c-.21-.143-.422-.284-.626-.43l-.215-.157c-.294-.215-.583-.433-.864-.655L64,470.649c-.314-.251-.618-.507-.914-.767-.069-.06-.137-.122-.2-.183q-.409-.366-.8-.743c-.028-.027-.058-.054-.086-.082-.275-.273-.539-.551-.8-.833l-.182-.2c-.256-.287-.5-.577-.739-.872a15.265,15.265,0,0,1-3.245-8.618l.333,9.523a14.227,14.227,0,0,0,3.34,8.189c.235.3.484.586.739.872.06.067.12.135.182.2.257.282.521.56.8.833l.086.082c.257.252.523.5.8.743l.2.182q.445.39.915.768l.156.122q.423.334.865.656c.071.052.142.1.214.156l.139.1c.159.113.327.22.489.331.193.13.382.263.579.39s.418.262.629.392.4.251.607.372l.112.069q.516.3,1.05.591l.112.058c.309.166.621.331.939.49.063.032.128.062.191.093.105.053.212.1.318.155q.49.239.993.467c.1.046.2.092.3.137.053.024.1.049.157.072q.539.238,1.093.462l.264.106c.178.072.354.144.534.214.1.04.214.076.32.116.377.144.76.282,1.145.418.13.046.255.1.385.141.068.023.138.044.206.066.4.134.8.263,1.206.388.137.043.27.09.408.132l.094.027q.846.253,1.711.485h0q.8.214,1.625.405l.177.041c.18.042.363.076.544.116.367.081.734.162,1.1.237l.147.031c.193.038.388.069.582.106.34.064.679.128,1.022.186l.205.037c.19.031.383.057.573.087.329.051.658.1.989.15l.259.039c.182.024.366.043.548.067.326.041.651.082.978.119.1.012.2.026.308.037.171.019.344.031.516.048.325.032.652.063.979.09.119.01.237.024.356.033.159.012.318.019.477.03q.493.035.988.062c.135.007.268.019.4.025s.289.009.433.015q.5.021,1,.034c.152,0,.3.012.454.015.126,0,.254,0,.381,0q.515.007,1.032,0c.168,0,.336,0,.505,0,.1,0,.21-.007.315-.008.364-.006.729-.017,1.093-.029.183-.006.367-.007.55-.015.078,0,.155-.01.232-.013.424-.019.849-.046,1.272-.074.175-.012.351-.017.525-.03.04,0,.079-.008.118-.011q.993-.076,1.983-.183l.045,0c.5-.055,1.006-.119,1.507-.187l.4-.056c.17-.024.342-.046.512-.072.205-.031.409-.069.614-.1s.418-.067.627-.1c.372-.065.742-.135,1.111-.207.178-.035.357-.067.534-.1l.135-.026q.747-.155,1.488-.331.675-.16,1.33-.334c.145-.039.286-.08.43-.119C111.344,486.884,111.634,486.8,111.918,486.721Z" transform="translate(-56.924 -401.298)" fill="url(#linear-gradient-3)"/>
        <path id="Path_3032" data-name="Path 3032" d="M118.253,482.557c-.943.286-1.922.551-2.93.789a62.639,62.639,0,0,1-28.022-.058,48.216,48.216,0,0,1-12.332-4.612l4.46-5.865a31.412,31.412,0,0,0,11.495,5.015,44.78,44.78,0,0,0,20.043.042,34.652,34.652,0,0,0,3.468-1.005Z" transform="translate(-63.379 -406.321)" fill="url(#linear-gradient-4)"/>
        <path id="Path_3101" data-name="Path 3101" d="M15506.233-4245.789s-8.978,3.022-9.722,9.684,5.541,10.547,5.541,10.547l-4.514,5.968s-12.066-5.644-11.422-16.332,12.735-16.878,20.116-17.777C15506.219-4250.022,15506.233-4245.789,15506.233-4245.789Z" transform="translate(-15486 4292)" fill="url(#linear-gradient-5)"/>
      </g>
      <g id="Group_2026" data-name="Group 2026" transform="translate(19.963 12.293)">
        <g id="Group_824" data-name="Group 824" style="isolation: isolate">
          <g id="Group_813" data-name="Group 813" transform="translate(4.837 37.282)">
            <path id="Path_1292" data-name="Path 1292" d="M539.6,409.72l11.809-3.336,2.755,1-11.809,3.336Z" transform="translate(-539.598 -406.384)" fill="url(#linear-gradient-6)"/>
          </g>
          <g id="Group_814" data-name="Group 814" transform="translate(4.837 26.049)">
            <path id="Path_1293" data-name="Path 1293" d="M539.634,395.5l11.809-3.336-.036,11.233L539.6,406.735Z" transform="translate(-539.598 -392.166)" fill="#323d43"/>
          </g>
          <g id="Group_815" data-name="Group 815" transform="translate(11.689 45.244)">
            <path id="Path_1294" data-name="Path 1294" d="M548.29,419.8l11.809-3.336-.018,5.616-11.809,3.336Z" transform="translate(-548.271 -416.461)" fill="#373737"/>
          </g>
          <g id="Group_816" data-name="Group 816" transform="translate(4.891 20.486)">
            <path id="Path_1295" data-name="Path 1295" d="M539.667,388.462l11.809-3.336,2.755,1-11.809,3.336Z" transform="translate(-539.667 -385.126)" fill="url(#linear-gradient-7)"/>
          </g>
          <g id="Group_817" data-name="Group 817" transform="translate(4.891 10.069)">
            <path id="Path_1296" data-name="Path 1296" d="M539.7,375.276l11.809-3.336-.034,10.418-11.809,3.336Z" transform="translate(-539.667 -371.94)" fill="#323d43"/>
          </g>
          <path id="Path_1297" data-name="Path 1297" d="M562.625,410.091l-.045,0a3.391,3.391,0,0,1-.542-.012l-.04,0a4.73,4.73,0,0,1-.6-.108l-.043-.009a6.721,6.721,0,0,1-.692-.213l-.534-.194-11.808,3.336.534.194c.1.036.2.07.3.1q.186.059.365.1l.029.007.045.009c.088.021.175.042.26.058.107.02.21.036.312.047l.029,0,.041,0c.077.008.153.015.226.017.1,0,.2,0,.288,0l.027,0,.046,0c.074-.006.149-.012.22-.024a2.52,2.52,0,0,0,.272-.059l11.808-3.337A2.529,2.529,0,0,1,562.625,410.091Z" transform="translate(-536.592 -369.768)" fill="url(#linear-gradient-8)"/>
          <g id="Group_818" data-name="Group 818" transform="translate(11.725 28.556)">
            <path id="Path_1298" data-name="Path 1298" d="M548.354,398.676l11.809-3.336-.037,11.233-11.809,3.336Z" transform="translate(-548.317 -395.34)" fill="#323d43"/>
          </g>
          <g id="Group_819" data-name="Group 819" transform="translate(0.124 2.86)">
            <path id="Path_1299" data-name="Path 1299" d="M533.633,366.152l11.809-3.336,7.574,2.757-11.809,3.336Z" transform="translate(-533.633 -362.816)" fill="#323d43"/>
          </g>
          <path id="Path_1300" data-name="Path 1300" d="M562.224,388.535a2.106,2.106,0,0,1-.367.066l-.062.006a2.577,2.577,0,0,1-.382,0l-.051,0a3.358,3.358,0,0,1-.415-.067l-.05-.011a4.516,4.516,0,0,1-.476-.143l-.227-.083-11.808,3.336.227.082q.095.034.187.064c.081.025.16.048.239.068l.051.012.048.01.129.029c.076.013.15.025.224.033l.062,0,.052,0c.036,0,.073.007.108.009.077,0,.152,0,.227,0l.048,0,.062-.007c.044,0,.088-.007.131-.013a2.117,2.117,0,0,0,.235-.052h0Z" transform="translate(-536.606 -365.305)" fill="url(#linear-gradient-9)"/>
          <g id="Group_820" data-name="Group 820" transform="translate(11.78 12.576)">
            <path id="Path_1301" data-name="Path 1301" d="M548.42,378.449l11.808-3.336-.034,10.418-11.809,3.336Z" transform="translate(-548.386 -375.113)" fill="#323d43"/>
          </g>
          <g id="Group_821" data-name="Group 821" transform="translate(11.832 1.505)">
            <path id="Path_1302" data-name="Path 1302" d="M548.47,364.437l11.809-3.336-.018,5.616-11.809,3.336Z" transform="translate(-548.452 -361.1)" fill="url(#linear-gradient-10)"/>
          </g>
          <g id="Group_822" data-name="Group 822" transform="translate(7.716)">
            <path id="Path_1303" data-name="Path 1303" d="M543.242,362.532l11.809-3.336,4.134,1.5-11.809,3.336Z" transform="translate(-543.242 -359.196)" fill="url(#linear-gradient-11)"/>
          </g>
          <path id="Path_1304" data-name="Path 1304" d="M571.2,403.974c0-.206-.008-.411-.016-.612s-.019-.383-.032-.572c0-.04-.007-.079-.01-.119,0-.024,0-.048-.006-.073-.01-.115-.018-.231-.029-.345-.017-.17-.036-.338-.058-.5s-.044-.32-.069-.477c-.009-.05-.018-.1-.026-.148l-.012-.069c-.014-.081-.028-.164-.043-.246-.029-.154-.061-.307-.095-.458s-.073-.315-.113-.47c-.017-.062-.035-.122-.051-.183-.01-.035-.02-.07-.03-.1-.024-.085-.046-.172-.072-.256-.1-.322-.211-.631-.33-.936-.014-.035-.024-.072-.038-.107q-.211-.521-.464-1.01c-.028-.054-.059-.1-.088-.157l-.066-.12c-.05-.088-.1-.179-.148-.265-.092-.155-.188-.307-.287-.457-.071-.107-.146-.211-.22-.315l-.032-.045-.036-.052c-.095-.129-.193-.256-.293-.38s-.2-.236-.3-.352c-.059-.067-.121-.132-.182-.2l-.046-.05-.077-.084q-.154-.16-.315-.315c-.108-.1-.218-.2-.331-.3-.076-.067-.152-.133-.231-.2l-11.808,3.336a10.979,10.979,0,0,1,.953.9l.045.049a10.5,10.5,0,0,1,.807.981l.033.046a10.872,10.872,0,0,1,.655,1.038c.022.039.045.079.067.119a11.636,11.636,0,0,1,.551,1.167c.014.035.025.073.038.107.151.384.287.781.4,1.192.01.035.02.07.029.1q.18.655.3,1.357l.013.069q.12.713.182,1.474c0,.025,0,.05.006.075.04.524.06,1.063.058,1.62s-.026,1.074-.07,1.572c0,.026-.006.051-.008.077a13.806,13.806,0,0,1-.2,1.376l-.011.058a10.544,10.544,0,0,1-.329,1.247l-.007.021a8.115,8.115,0,0,1-.469,1.116c-.055.107-.115.205-.172.307-.049.086-.1.173-.15.255-.037.059-.076.114-.115.172-.081.122-.165.24-.252.352-.041.054-.083.106-.126.157-.114.137-.231.266-.353.388-.025.025-.049.054-.075.078a4.769,4.769,0,0,1-.459.386c-.042.031-.085.059-.127.088q-.188.13-.386.24c-.049.027-.1.054-.148.08a4.572,4.572,0,0,1-.541.235c-.107.038-.215.073-.324.1l11.809-3.336c.108-.031.216-.066.323-.1a4.378,4.378,0,0,0,.541-.235c.05-.025.1-.053.148-.081a4.373,4.373,0,0,0,.386-.24c.042-.029.085-.056.127-.088a4.762,4.762,0,0,0,.459-.386c.026-.025.05-.053.076-.079.122-.121.238-.25.352-.387.02-.025.042-.043.062-.068s.042-.061.064-.09c.087-.112.171-.23.252-.352.025-.038.053-.07.078-.109.013-.021.025-.043.037-.064.051-.081.1-.168.149-.254.034-.061.071-.117.1-.179l.067-.128q.078-.153.152-.311.088-.192.168-.393c.05-.125.1-.254.141-.385l.009-.027.007-.022c.037-.11.073-.221.107-.335s.073-.258.107-.391.063-.264.092-.4c.009-.04.016-.082.024-.122l.011-.057c.016-.078.032-.156.046-.235.025-.142.048-.287.069-.435s.04-.3.058-.458c.009-.082.016-.167.024-.25l.007-.076c0-.055.011-.108.015-.164.013-.172.025-.348.033-.527s.016-.378.019-.574c0-.1,0-.2,0-.309S571.206,404.079,571.2,403.974Z" transform="translate(-538.011 -366.5)" fill="url(#linear-gradient-12)"/>
          <path id="Path_1306" data-name="Path 1306" d="M568.985,381.293c0-.228-.009-.454-.017-.677,0-.046-.006-.09-.008-.136s-.005-.1-.008-.147c-.006-.115-.011-.232-.019-.346q-.021-.3-.05-.59c0-.036-.009-.072-.013-.108s-.009-.074-.013-.111c-.013-.112-.024-.225-.039-.336q-.035-.265-.076-.525c-.008-.049-.017-.1-.025-.145l-.019-.111c-.015-.083-.028-.167-.044-.25-.031-.169-.066-.336-.1-.5-.014-.066-.032-.131-.047-.2q-.014-.064-.031-.128c-.016-.064-.03-.13-.047-.194-.051-.2-.108-.4-.166-.592-.009-.026-.019-.05-.027-.076-.115-.368-.24-.728-.38-1.076-.012-.028-.026-.055-.037-.082q-.2-.478-.428-.928c-.014-.028-.024-.058-.039-.085-.1-.2-.213-.4-.327-.589l-.055-.092c-.089-.146-.18-.29-.273-.431-.071-.107-.145-.209-.219-.314-.022-.03-.043-.062-.065-.092l-.04-.056q-.154-.21-.317-.412c-.054-.067-.111-.132-.167-.2l-.072-.085-.073-.086q-.153-.173-.311-.339c-.061-.063-.123-.123-.185-.185l-.064-.063-.065-.065c-.1-.1-.212-.2-.32-.3-.081-.071-.164-.14-.246-.209-.016-.013-.031-.027-.047-.04l-.037-.032c-.113-.092-.227-.182-.345-.269s-.215-.156-.325-.232l-.023-.017-.016-.012c-.127-.086-.257-.171-.388-.252-.114-.071-.231-.138-.348-.2l-.046-.027-.027-.016c-.15-.085-.3-.165-.46-.243-.085-.043-.174-.082-.262-.122-.045-.021-.09-.043-.136-.064l-.109-.051q-.282-.124-.574-.235l-.154-.058-.992-.361-11.809,3.337.992.361c.288.1.566.22.838.344l.136.063c.255.12.506.246.748.382l.046.027q.387.22.751.469l.024.018q.365.25.705.53l.047.04q.326.271.631.568l.064.064q.294.291.569.609l.072.086c.181.213.356.435.524.666l.064.092c.171.239.336.486.493.743s.288.5.422.766c.154.3.3.61.428.929.012.027.025.053.036.08.141.348.266.708.381,1.077.087.281.167.568.239.861l.031.128q.11.463.194.947c.006.037.013.074.02.111.055.328.1.663.14,1.005,0,.038.009.076.013.114.036.34.062.689.082,1.043,0,.049.005.1.008.147q.027.572.027,1.167c0,.435-.022.852-.059,1.253l-.005.062a11.183,11.183,0,0,1-.164,1.123l-.008.044a9.257,9.257,0,0,1-.274,1.034l-.01.031a7.532,7.532,0,0,1-.393.954,6.587,6.587,0,0,1-.45.767c-.035.052-.072.1-.108.151a5.088,5.088,0,0,1-.454.55c-.02.021-.038.045-.058.066a4.14,4.14,0,0,1-.56.467c-.046.032-.092.063-.139.093a3.85,3.85,0,0,1-.632.336l11.808-3.336a3.79,3.79,0,0,0,.632-.337c.046-.03.094-.06.14-.092a4.174,4.174,0,0,0,.559-.467c.021-.02.039-.045.059-.066.1-.1.2-.209.293-.327.056-.07.107-.149.16-.223.036-.051.073-.1.108-.152s.055-.073.081-.113c.09-.141.178-.29.261-.446.037-.068.073-.137.108-.208s.064-.132.095-.2q.082-.178.156-.364c.045-.115.088-.231.129-.349,0-.013.009-.028.013-.041l.01-.032c.029-.089.059-.179.086-.27.032-.111.064-.225.092-.341s.055-.227.08-.343c.006-.027.01-.054.016-.081l.009-.043c.015-.075.03-.149.043-.225.021-.118.04-.238.058-.36s.033-.247.047-.373c.006-.055.01-.111.016-.166l.006-.062c0-.055.011-.108.015-.163.011-.136.02-.274.026-.414s.012-.292.015-.442q0-.116,0-.235C568.987,381.528,568.987,381.41,568.985,381.293Z" transform="translate(-536.62 -361.088)" fill="url(#linear-gradient-13)"/>
          <g id="Group_823" data-name="Group 823" transform="translate(0 3.336)">
            <path id="Path_1307" data-name="Path 1307" d="M550.719,390.909q4.161,3.477,4.143,10.3a12.013,12.013,0,0,1-1.091,5.468,5.251,5.251,0,0,1-2.9,2.739,5.817,5.817,0,0,1-4.039-.156l-1.645-.6-.018,5.616-4.134-1.5.018-5.617-7.573-2.757.124-38.123,7.574,2.757.018-5.617,4.134,1.505-.018,5.617.992.361a10.844,10.844,0,0,1,5.714,4.7,15.79,15.79,0,0,1,2.02,8.375,10.118,10.118,0,0,1-.913,4.5A4.708,4.708,0,0,1,550.719,390.909Zm-1.861,12.429q1.1-.8,1.1-3.859a8.825,8.825,0,0,0-1.133-4.836,6.419,6.419,0,0,0-3.322-2.571l-.27-.1-.036,11.233.534.194a3.281,3.281,0,0,0,3.122-.064m-3.568-27.344-.034,10.418.227.082a2.421,2.421,0,0,0,2.645-.325c.664-.615,1-1.792,1.01-3.536a8.153,8.153,0,0,0-.965-4.47,5.6,5.6,0,0,0-2.883-2.169M541.067,401.7l.037-11.233-2.755-1-.036,11.232,2.754,1m.055-16.8.034-10.418-2.754-1-.034,10.418,2.754,1" transform="translate(-533.476 -363.418)" fill="url(#linear-gradient-14)"/>
          </g>
        </g>
      </g>
    </g>
  </g>
</svg>
