<svg xmlns="http://www.w3.org/2000/svg" width="220.656" height="62.097" viewBox="0 0 220.656 62.097">
  <g id="Group_961" data-name="Group 961" transform="translate(-830.071 -724.58)">
    <rect id="Rectangle_237" data-name="Rectangle 237" width="220.656" height="62.097" transform="translate(830.071 724.58)" fill="#013ca6"/>
    <g id="Group_536" data-name="Group 536" transform="translate(839.876 734.324)">
      <path id="Path_867" data-name="Path 867" d="M1025.77,826.54H979.587v-1.931h46.188v1.931Z" transform="translate(-940.285 -801.5)" fill="#ff7301"/>
      <path id="Path_868" data-name="Path 868" d="M980.7,788.138a3.831,3.831,0,0,1-1.087-.85,2.212,2.212,0,0,1-.446-1.405,2.694,2.694,0,0,1,.927-2.2,4.292,4.292,0,0,1,2.856-.836c.6,0,1.207.027,1.8.083s1.205.111,1.819.174l-.37,1.785h-3.231a2.243,2.243,0,0,0-1.07.178.6.6,0,0,0-.3.557c0,.441.469.776,1.405,1a19.863,19.863,0,0,1,2.448.685,2.554,2.554,0,0,1,.987.812,2.838,2.838,0,0,1,.487,1.729,5.589,5.589,0,0,1-.032.56,2.336,2.336,0,0,1-.981,1.789,3.217,3.217,0,0,1-1.9.526h-4.707v-3.315h2.088V790.8h1.956a2.567,2.567,0,0,0,.907-.111.715.715,0,0,0,.358-.73c.046-.465-.4-.822-1.36-1.052a14.109,14.109,0,0,1-2.553-.771" transform="translate(-940.004 -773.452)" fill="#fff"/>
      <path id="Path_869" data-name="Path 869" d="M1014.591,793.238h-1.966l-.111-1.829a4.626,4.626,0,0,1-1.055,1.49,2.3,2.3,0,0,1-1.528.548,2.987,2.987,0,0,1-3.1-3.17v-6.665h2.2v5.954a2.673,2.673,0,0,0,.3,1.355,1.2,1.2,0,0,0,1.121.622,1.671,1.671,0,0,0,1.382-.8,3.017,3.017,0,0,0,.53-1.776v-5.359h2.223Z" transform="translate(-958.583 -773.968)" fill="#fff"/>
      <path id="Path_870" data-name="Path 870" d="M1034.117,785.011l-.56-1.132a6.073,6.073,0,0,1,1.118-.636,4.832,4.832,0,0,1,1.864-.378,1.943,1.943,0,0,1,1.756.745,2.074,2.074,0,0,1,.3,1.153v7.973h-2.223v-6.782c0-.089,0-.186.009-.273a1.636,1.636,0,0,0-.151-.818.9.9,0,0,0-.82-.364,1.824,1.824,0,0,0-.8.209,3.26,3.26,0,0,0-.493.3" transform="translate(-976.529 -773.467)" fill="#fff"/>
      <path id="Path_871" data-name="Path 871" d="M1054.975,788.006a2.089,2.089,0,0,1,.873-.722,2.714,2.714,0,0,1,1.124-.25v1.877a2.027,2.027,0,0,0-.357-.038,1.408,1.408,0,0,0-1.186.624,2.313,2.313,0,0,0-.455,1.406v1.836h-2.205v-6.38a3.534,3.534,0,0,1,.778-2.514,4.228,4.228,0,0,1,3.155-.978,4.018,4.018,0,0,1,3.038.978,3.548,3.548,0,0,1,.788,2.514v6.38h-2.221v-6.486a1.753,1.753,0,0,0-.426-1.277,1.632,1.632,0,0,0-1.2-.425,1.757,1.757,0,0,0-1.245.425,1.659,1.659,0,0,0-.463,1.277Z" transform="translate(-989.432 -773.467)" fill="#fff"/>
      <path id="Path_872" data-name="Path 872" d="M1078.947,785.011l-.565-1.132a6.29,6.29,0,0,1,1.117-.636,4.871,4.871,0,0,1,1.871-.378,1.931,1.931,0,0,1,1.751.745,2.056,2.056,0,0,1,.3,1.153v7.973h-2.229v-6.782a2.069,2.069,0,0,1,.012-.273,1.723,1.723,0,0,0-.149-.818.885.885,0,0,0-.821-.364,1.842,1.842,0,0,0-.8.209,3.21,3.21,0,0,0-.489.3" transform="translate(-1006.632 -773.467)" fill="#fff"/>
      <path id="Path_873" data-name="Path 873" d="M1102.492,785.707a1.426,1.426,0,0,0-.455-.776,1.683,1.683,0,0,0-1.083-.318,1.929,1.929,0,0,0-1.227.308.806.806,0,0,0-.3.68c0,.445.707.825,2.146,1.141a7.462,7.462,0,0,1,1.884.591,2.673,2.673,0,0,1,.956.9,2.538,2.538,0,0,1,.444,1.408,2.972,2.972,0,0,1-1.057,2.418,4.281,4.281,0,0,1-2.8.873,5.187,5.187,0,0,1-2.764-.645,2.872,2.872,0,0,1-1.156-1.241,2,2,0,0,1-.23-.836l2.081-.366a1.286,1.286,0,0,0,.671.962,2.748,2.748,0,0,0,1.438.328,2.3,2.3,0,0,0,1.063-.214.87.87,0,0,0,.509-.8c0-.479-.471-.833-1.408-1.059a12.764,12.764,0,0,1-2.474-.742,2.838,2.838,0,0,1-1.012-.943,2.32,2.32,0,0,1-.374-1.247,3.128,3.128,0,0,1,.943-2.4,3.8,3.8,0,0,1,2.694-.882,3.962,3.962,0,0,1,2.221.622,2.992,2.992,0,0,1,1.307,1.865Z" transform="translate(-1019.033 -773.455)" fill="#fff"/>
      <path id="Path_874" data-name="Path 874" d="M1133.4,777.925V759.706c.476-3.634,5.992-2.484,5.992-2.484v-1.106c-3.906-1.686-10.248-.3-13-.3s-2.686-1.569-2.686-1.569l-3.507,1.544s.586,2.191,4.286,2.191c4.289,0,6.161-1.165,8.371-.805,0,0-3.128,1.023-3.128,4v16.678c0,1.47,1.021,1.437,1.021,1.437h3.953c-1.247,0-1.3-1.364-1.3-1.364" transform="translate(-1034.714 -754.248)" fill="#fff"/>
      <path id="Path_875" data-name="Path 875" d="M1265.018,797.645s0-11.462,0-12.6c0-1.47-1.024-1.433-1.024-1.433h-3.955c1.247,0,1.3,1.36,1.3,1.36s-.005,11.46-.005,12.6c0,1.47,1.021,1.437,1.021,1.437h3.955c-1.243,0-1.3-1.364-1.3-1.364" transform="translate(-1128.628 -773.968)" fill="#fff"/>
      <path id="Path_876" data-name="Path 876" d="M1389.233,797.208v-9.233s0-5.013-6.494-5.013-7.8,4.608-7.8,8.543,2.487,7.218,6.117,7.218c2.482,0,3.168-1.224,3.168-1.224l-.732-1.99s-.251.757-1.87.757-2.938-1.891-2.938-4.9c0-2.533.671-5.934,4.071-5.934,3.082,0,2.794,3.167,2.794,4.272v7.43c0,1.473,1.026,1.44,1.026,1.44h3.957c-1.246,0-1.3-1.364-1.3-1.364" transform="translate(-1205.79 -773.531)" fill="#fff"/>
      <path id="Path_877" data-name="Path 877" d="M1438.79,797.208v-9.242l.007-5h-3.655l-1.632,1.339s-.4-1.339-2.9-1.339c-6.8,0-6.123,8.537-6.123,8.537,0,3.94,2.488,7.224,6.123,7.224,2.481,0,3.168-1.224,3.168-1.224l-.728-1.994s-.256.761-1.877.761-2.943-1.891-2.943-4.909c0,0-.043-5.827,3.078-5.827a2.429,2.429,0,0,1,1.975,1.362l1.826-1.114v11.354c0,1.473,1.024,1.44,1.024,1.44h3.959c-1.245,0-1.308-1.364-1.308-1.364" transform="translate(-1239.053 -773.531)" fill="#fff"/>
      <path id="Path_878" data-name="Path 878" d="M1175.825,782.965a6.5,6.5,0,0,0-4.692,2.156v-.516c0-1.464-1.019-1.427-1.019-1.427h-3.956c1.249,0,1.308,1.353,1.308,1.353v14.043h3.667v-7.7c0-4.425,2.993-5.408,4.319-5.408s1.3,1.961,1.3,1.961v11.147h3.7V787.427c0-2.792-1.262-4.462-4.629-4.462" transform="translate(-1065.578 -773.533)" fill="#fff"/>
      <path id="Path_879" data-name="Path 879" d="M1224.51,796.429h-2.8s-2.767-.064-2.767-2.555a2.992,2.992,0,0,1,3.135-3.132h1.314V788.57h-1.278s-2.888.209-2.888-1.818,3.584-1.247,4.1-.549l-.454-2.695a4.348,4.348,0,0,0-2.56-.546c-1.878,0-4.354.723-4.354,3.6a2.954,2.954,0,0,0,2.853,3.246,4.054,4.054,0,0,0-3.521,4.211,4.416,4.416,0,0,0,4.509,4.549h8.369v-15.4h-3.656Z" transform="translate(-1098.572 -773.531)" fill="#fff"/>
      <path id="Path_880" data-name="Path 880" d="M1295.783,797.186v-9c0-.339.508-5.262-6.423-5.262-6.475,0-6.663,3.934-6.663,5.061v9.12c0,1.473,1.024,1.44,1.024,1.44h3.966c-1.253,0-1.31-1.364-1.31-1.364V795.6c.361-3.859,3.418-3.2,3.418-3.2l-.319-2.97a3.579,3.579,0,0,0-3.1,2.051v-3.1a2.864,2.864,0,0,1,5.722.254v8.471c0,1.473,1.026,1.44,1.026,1.44h3.969c-1.253,0-1.311-1.364-1.311-1.364" transform="translate(-1143.841 -773.509)" fill="#fff"/>
      <path id="Path_881" data-name="Path 881" d="M1332.609,787.216c0-.678.347-1.543,2.794-1.543s2.674,1.693,2.674,1.693l3.647-.577s-.615-3.858-6.163-3.858-6.674,2.529-6.674,5.1c0,1.644,1.413,3.684,5.459,4.291s3.627,1.917,3.627,1.917.15,1.568-3,1.568-3.351-2.006-3.351-2.006l-3.588.571c1.061,3.9,4.736,4.323,6.939,4.323s7-.2,7-4.816c0-5.163-9.373-3.928-9.373-6.669" transform="translate(-1174.291 -773.511)" fill="#fff"/>
      <path id="Path_882" data-name="Path 882" d="M1378.37,767.865h12.457v-2.359h-11.716l-.994,1.634s-.481.725.254.725" transform="translate(-1207.817 -761.808)" fill="#fff"/>
      <rect id="Rectangle_238" data-name="Rectangle 238" width="1.245" height="5.125" transform="translate(158.613 35.308)" fill="#fff"/>
      <path id="Path_883" data-name="Path 883" d="M1354.494,865.141a5.688,5.688,0,0,1-.046.756,1.733,1.733,0,0,1-.2.6,1.059,1.059,0,0,1-.428.386,1.617,1.617,0,0,1-.72.141,1.288,1.288,0,0,1-.634-.185,1.733,1.733,0,0,1-.54-.459,1.191,1.191,0,0,1-.478.464,1.288,1.288,0,0,1-.635.18,1.823,1.823,0,0,1-.77-.141,1.022,1.022,0,0,1-.449-.386,1.546,1.546,0,0,1-.214-.6,4.645,4.645,0,0,1-.057-.756v-3.384h1.247v3.854c0,.025,0,.06.006.112a.515.515,0,0,0,.036.146.3.3,0,0,0,.328.185.28.28,0,0,0,.187-.054.354.354,0,0,0,.141-.266,1.056,1.056,0,0,0,0-.109v-3.867h1.257v3.854c0,.025,0,.06.007.112a.4.4,0,0,0,.04.146.323.323,0,0,0,.1.131.358.358,0,0,0,.221.054.3.3,0,0,0,.195-.054.388.388,0,0,0,.1-.124.524.524,0,0,0,.039-.142c0-.049.006-.088.006-.109v-3.867h1.256Z" transform="translate(-1188.585 -826.447)" fill="#fff"/>
      <path id="Path_884" data-name="Path 884" d="M1351.458,855.412l.36-.781h2.4v-.762h.509c.069,0,.115.015.127.05a.251.251,0,0,1,.019.1,1.144,1.144,0,0,1,.012.164.81.81,0,0,0,.014.16.418.418,0,0,0,.04.141c.019.047.069.07.146.07a.127.127,0,0,0,.127-.065.69.69,0,0,0,.047-.146,1.5,1.5,0,0,1,.012-.158c.006-.052.012-.1.024-.166a.336.336,0,0,1,.025-.1c.014-.032.054-.048.119-.048h.481v1.544Z" transform="translate(-1190.018 -821.149)" fill="#fff"/>
      <rect id="Rectangle_239" data-name="Rectangle 239" width="1.245" height="1.455" transform="translate(164.652 30.954)" fill="#fff"/>
      <path id="Path_885" data-name="Path 885" d="M1372.2,864.079a3.419,3.419,0,0,1-.165,1.061,2.485,2.485,0,0,1-.494.856,2.21,2.21,0,0,1-.793.576,2.648,2.648,0,0,1-1.083.21,2.383,2.383,0,0,1-1.1-.242,2.059,2.059,0,0,1-.752-.647,2.577,2.577,0,0,1-.412-.953,4.174,4.174,0,0,1-.089-1.169h2.385v.812h-1.164a1.238,1.238,0,0,0,.331.959,1.112,1.112,0,0,0,.879.34,1.089,1.089,0,0,0,.91-.469,2.317,2.317,0,0,0,.275-1.225,4.06,4.06,0,0,0-.065-.738,1.65,1.65,0,0,0-.228-.581.985.985,0,0,0-.4-.38,1.2,1.2,0,0,0-.617-.138,1.146,1.146,0,0,0-.7.226,1.256,1.256,0,0,0-.437.624l-1.146-.16a2.79,2.79,0,0,1,.284-.608,2.171,2.171,0,0,1,.479-.53,2.406,2.406,0,0,1,.679-.371,2.617,2.617,0,0,1,.9-.143,2.735,2.735,0,0,1,1.091.2,2.145,2.145,0,0,1,.79.56,2.433,2.433,0,0,1,.48.85,3.627,3.627,0,0,1,.16,1.077" transform="translate(-1200.658 -826.198)" fill="#fff"/>
      <path id="Path_886" data-name="Path 886" d="M1387.984,865a1.548,1.548,0,0,1-.6,1.308,2.571,2.571,0,0,1-1.6.458,3.806,3.806,0,0,1-.925-.1,2.57,2.57,0,0,1-.653-.249,1.9,1.9,0,0,1-.422-.327,1.775,1.775,0,0,1-.237-.339,1.13,1.13,0,0,1-.106-.284.616.616,0,0,1-.025-.16l1.188-.2a.693.693,0,0,0,.386.524,1.829,1.829,0,0,0,.824.168,1.866,1.866,0,0,0,.314-.028.766.766,0,0,0,.279-.095.537.537,0,0,0,.213-.171.43.43,0,0,0-.146-.629,2.338,2.338,0,0,0-.57-.192c-.23-.051-.467-.1-.723-.146a2.364,2.364,0,0,1-.688-.248,1.6,1.6,0,0,1-.565-.507,1.175,1.175,0,0,1-.224-.667,1.608,1.608,0,0,1,.5-1.29,2.261,2.261,0,0,1,1.566-.47,2.519,2.519,0,0,1,.677.085,2.244,2.244,0,0,1,.592.25,1.856,1.856,0,0,1,.462.415,1.563,1.563,0,0,1,.289.577l-1.154.2a.8.8,0,0,0-.255-.411.959.959,0,0,0-.619-.17,1.047,1.047,0,0,0-.716.166.489.489,0,0,0-.16.366.381.381,0,0,0,.254.343,2.92,2.92,0,0,0,.612.188c.234.051.485.1.745.154a2.811,2.811,0,0,1,.677.231,1.582,1.582,0,0,1,.564.494,1.229,1.229,0,0,1,.251.75" transform="translate(-1211.477 -826.179)" fill="#fff"/>
      <path id="Path_887" data-name="Path 887" d="M1399.821,866.609v-3.861a.669.669,0,0,0-.018-.164.5.5,0,0,0-.074-.17.509.509,0,0,0-.451-.184,1.044,1.044,0,0,0-.42.077,1.549,1.549,0,0,0-.309.195l-.319-.606c.07-.048.154-.1.255-.166s.208-.119.331-.178a2.284,2.284,0,0,1,.43-.143,2.5,2.5,0,0,1,.548-.054,1.692,1.692,0,0,1,.647.1.973.973,0,0,1,.4.273.911.911,0,0,1,.191.362,1.59,1.59,0,0,1,.048.375v4.142Z" transform="translate(-1221.429 -826.176)" fill="#fff"/>
      <path id="Path_888" data-name="Path 888" d="M1413.555,865a1.775,1.775,0,0,1-.5,1.315,2.24,2.24,0,0,1-1.629.5,3.162,3.162,0,0,1-1.732-.417,1.473,1.473,0,0,1-.643-1.336,1.1,1.1,0,0,1,.1-.48,1.787,1.787,0,0,1,.226-.336,1.12,1.12,0,0,1,.328-.259.933.933,0,0,1-.56-.491,1.6,1.6,0,0,1-.138-.778,1.27,1.27,0,0,1,.4-.926,1.361,1.361,0,0,1,.911-.333,3.073,3.073,0,0,1,.686.051,1.848,1.848,0,0,1,.6.211l-.231.762a1.117,1.117,0,0,0-.763-.141.484.484,0,0,0-.364.45.5.5,0,0,0,.083.358.886.886,0,0,0,.275.242,1.471,1.471,0,0,0,.384.132,1.809,1.809,0,0,0,.4.047v.69c-.095,0-.2,0-.308.013a.8.8,0,0,0-.292.071.7.7,0,0,0-.227.183.671.671,0,0,0-.135.337.893.893,0,0,0,0,.328.681.681,0,0,0,.135.328.783.783,0,0,0,.323.246,1.31,1.31,0,0,0,.568.1,1,1,0,0,0,.44-.087.654.654,0,0,0,.267-.234.824.824,0,0,0,.123-.333,2.372,2.372,0,0,0,.034-.387v-3.272h1.255Z" transform="translate(-1228.661 -826.245)" fill="#fff"/>
      <path id="Path_889" data-name="Path 889" d="M1429.536,865a1.8,1.8,0,0,1-.5,1.315,2.268,2.268,0,0,1-1.635.5,3.16,3.16,0,0,1-1.73-.417,1.484,1.484,0,0,1-.641-1.336,1.075,1.075,0,0,1,.1-.48,2.076,2.076,0,0,1,.224-.336,1.055,1.055,0,0,1,.336-.259.934.934,0,0,1-.567-.491,1.6,1.6,0,0,1-.137-.778,1.263,1.263,0,0,1,.392-.926,1.369,1.369,0,0,1,.913-.333,3.04,3.04,0,0,1,.687.051,1.88,1.88,0,0,1,.6.211l-.231.762a1.121,1.121,0,0,0-.763-.141.546.546,0,0,0-.284.808.8.8,0,0,0,.279.242,1.361,1.361,0,0,0,.376.132,1.885,1.885,0,0,0,.4.047v.69a3.055,3.055,0,0,0-.306.013.818.818,0,0,0-.291.071.679.679,0,0,0-.227.183.706.706,0,0,0-.137.337,1,1,0,0,0,0,.328.707.707,0,0,0,.137.328.786.786,0,0,0,.319.246,1.331,1.331,0,0,0,.57.1.981.981,0,0,0,.439-.087.6.6,0,0,0,.267-.234.872.872,0,0,0,.129-.333,2.659,2.659,0,0,0,.027-.387v-3.272h1.263Z" transform="translate(-1239.391 -826.245)" fill="#fff"/>
      <rect id="Rectangle_240" data-name="Rectangle 240" width="1.245" height="1.468" transform="translate(188.882 32.795)" fill="#fff"/>
      <path id="Path_890" data-name="Path 890" d="M1446.13,864.079a3.281,3.281,0,0,1-.166,1.061,2.473,2.473,0,0,1-.487.856,2.206,2.206,0,0,1-.792.576,2.7,2.7,0,0,1-1.087.21,2.381,2.381,0,0,1-1.1-.242,2.08,2.08,0,0,1-.752-.647,2.575,2.575,0,0,1-.412-.953,4.14,4.14,0,0,1-.087-1.169h2.383v.812h-1.166a1.249,1.249,0,0,0,.339.959,1.193,1.193,0,0,0,1.783-.129,2.285,2.285,0,0,0,.272-1.225,4.266,4.266,0,0,0-.055-.738,1.985,1.985,0,0,0-.229-.581,1.079,1.079,0,0,0-.4-.38,1.2,1.2,0,0,0-.62-.138,1.139,1.139,0,0,0-.694.226,1.292,1.292,0,0,0-.436.624l-1.148-.16a2.678,2.678,0,0,1,.289-.608,2.048,2.048,0,0,1,.475-.53,2.4,2.4,0,0,1,.679-.371,2.623,2.623,0,0,1,.9-.143,2.753,2.753,0,0,1,1.09.2,2.231,2.231,0,0,1,.794.56,2.39,2.39,0,0,1,.468.85,3.37,3.37,0,0,1,.163,1.077" transform="translate(-1250.309 -826.198)" fill="#fff"/>
      <path id="Path_891" data-name="Path 891" d="M1462.422,865a1.818,1.818,0,0,1-.5,1.315,2.262,2.262,0,0,1-1.639.5,3.143,3.143,0,0,1-1.727-.417,1.478,1.478,0,0,1-.643-1.336,1.055,1.055,0,0,1,.1-.48,1.558,1.558,0,0,1,.23-.336.943.943,0,0,1,.328-.259.93.93,0,0,1-.566-.491,1.615,1.615,0,0,1-.138-.778,1.27,1.27,0,0,1,.4-.926,1.365,1.365,0,0,1,.91-.333,3.063,3.063,0,0,1,.688.051,1.937,1.937,0,0,1,.6.211l-.237.762a1.11,1.11,0,0,0-.761-.141.484.484,0,0,0-.366.45.505.505,0,0,0,.083.358.847.847,0,0,0,.278.242,1.4,1.4,0,0,0,.384.132,1.8,1.8,0,0,0,.4.047v.69a3,3,0,0,0-.309.013.8.8,0,0,0-.295.071.71.71,0,0,0-.226.183.66.66,0,0,0-.135.337,1.007,1.007,0,0,0,0,.328.677.677,0,0,0,.135.328.876.876,0,0,0,.316.246,1.369,1.369,0,0,0,.575.1,1.041,1.041,0,0,0,.445-.087.64.64,0,0,0,.26-.234,1.054,1.054,0,0,0,.129-.333,3.057,3.057,0,0,0,.025-.387v-3.272h1.264Z" transform="translate(-1261.474 -826.245)" fill="#fff"/>
      <path id="Path_892" data-name="Path 892" d="M984.984,866.058a1.834,1.834,0,0,1-.473.489,2.31,2.31,0,0,1-.641.307,2.743,2.743,0,0,1-.753.108,1.768,1.768,0,0,1-1.112-.326,1.051,1.051,0,0,1-.423-.879,1.506,1.506,0,0,1,.037-.331l.78-3.648h.678l-.768,3.609a1.271,1.271,0,0,0-.02.135c0,.047,0,.091,0,.135,0,.528.308.795.934.795a1.253,1.253,0,0,0,1.367-1.064l.768-3.609h.679l-.78,3.648a1.835,1.835,0,0,1-.271.631" transform="translate(-941.625 -826.462)" fill="#91989e"/>
      <path id="Path_893" data-name="Path 893" d="M998.49,865.269a1.807,1.807,0,0,1-.733,1.154,2.337,2.337,0,0,1-1.381.409,1.84,1.84,0,0,1-1.136-.314,1.067,1.067,0,0,1-.412-.9,1.654,1.654,0,0,1,.053-.41h.738a1.064,1.064,0,0,0-.048.322.693.693,0,0,0,.258.565.958.958,0,0,0,.636.215,1.373,1.373,0,0,0,.883-.307.98.98,0,0,0,.435-.819c0-.435-.333-.727-1.01-.885-.872-.2-1.3-.563-1.3-1.073a.814.814,0,0,1,.008-.123c0-.041.006-.081.014-.119a1.634,1.634,0,0,1,.709-1,2.147,2.147,0,0,1,1.268-.4,1.494,1.494,0,0,1,1.075.364,1.08,1.08,0,0,1,.317.98h-.691a.68.68,0,0,0-.186-.591.833.833,0,0,0-.622-.239,1.322,1.322,0,0,0-.793.271,1.242,1.242,0,0,0-.269.308.758.758,0,0,0-.1.391.527.527,0,0,0,.316.488,3.776,3.776,0,0,0,.806.269c.793.185,1.194.571,1.194,1.152a.583.583,0,0,1-.012.138,1.06,1.06,0,0,1-.013.153" transform="translate(-950.519 -826.331)" fill="#91989e"/>
      <path id="Path_894" data-name="Path 894" d="M998.016,858.984l.1-.511h3.431l-.1.511Z" transform="translate(-952.661 -824.241)" fill="#91989e"/>
      <path id="Path_895" data-name="Path 895" d="M1012.118,864.469h-.319l-.206.959a1.76,1.76,0,0,1-.269.63,1.809,1.809,0,0,1-.473.488,2.263,2.263,0,0,1-.641.308,2.692,2.692,0,0,1-.753.1,1.776,1.776,0,0,1-1.115-.323,1.062,1.062,0,0,1-.42-.879,1.43,1.43,0,0,1,.036-.33l.78-3.649h.679l-.77,3.609c-.006.041-.012.088-.015.135a1,1,0,0,0-.006.135c0,.528.31.795.932.795a1.241,1.241,0,0,0,1.369-1.064l.19-.919h-1.339l.217-.975h.679l-.1.463h.661l.467-2.177h.676l-.461,2.177h.649Z" transform="translate(-959.314 -826.462)" fill="#91989e"/>
      <path id="Path_896" data-name="Path 896" d="M1015.7,857.912l.218-1.035h.683l-.119.524h2.134l-.1.511Z" transform="translate(-964.54 -823.169)" fill="#91989e"/>
      <path id="Path_897" data-name="Path 897" d="M1023.653,866.768l.738-3.479a1.89,1.89,0,0,0,.055-.451c0-.5-.263-.741-.793-.741a1.622,1.622,0,0,0-.987.359,1.361,1.361,0,0,0-.56.856l-.729,3.457h-.681l.962-4.529c.007-.035.013-.065.017-.092a.5.5,0,0,0,.01-.077.545.545,0,0,0-.245-.422h.8a.432.432,0,0,1,.131.436l-.064.266a2.071,2.071,0,0,1,1.676-.766c.78,0,1.16.358,1.16,1.075,0,.07,0,.144-.008.221s-.026.167-.04.251l-.768,3.636Z" transform="translate(-967.892 -826.331)" fill="#91989e"/>
      <path id="Path_898" data-name="Path 898" d="M1038.513,853.037c-.032.185-.236.376-.6.574a1.11,1.11,0,0,0-.6.616l-1.188,5.616h.59l-.464.513h-.908l1.344-6.335c.046-.2.231-.373.56-.525.346-.154.526-.319.552-.488a.386.386,0,0,0-.123-.35.554.554,0,0,0-.4-.136.922.922,0,0,0-.53.178.712.712,0,0,0-.3.45h-.7a1.286,1.286,0,0,1,.572-.781,1.914,1.914,0,0,1,1.036-.332,1.5,1.5,0,0,1,.846.221.672.672,0,0,1,.339.6.973.973,0,0,1-.018.18" transform="translate(-977.726 -819.919)" fill="#91989e"/>
      <path id="Path_899" data-name="Path 899" d="M1043.928,866.9a.434.434,0,0,1-.129-.435l.065-.269a1.721,1.721,0,0,1-1.538.768,1.39,1.39,0,0,1-.937-.314,1.132,1.132,0,0,1-.354-.891,1.661,1.661,0,0,1,.047-.405l.756-3.573h.679l-.731,3.417a1.553,1.553,0,0,0-.047.4c0,.57.3.856.918.856a1.342,1.342,0,0,0,.9-.339,1.619,1.619,0,0,0,.507-.879l.73-3.454h.675l-.962,4.53a1.283,1.283,0,0,0-.008.167.579.579,0,0,0,.231.423Z" transform="translate(-981.552 -826.462)" fill="#91989e"/>
      <path id="Path_900" data-name="Path 900" d="M1056.14,866.768l.77-3.611c.01-.041.014-.082.023-.123s0-.075,0-.119q0-.819-.919-.819a1.476,1.476,0,0,0-1.308.707l.423.354a.776.776,0,0,0-.639.641l-.629,2.97h-.679l.616-2.9a.85.85,0,0,1,.578-.665l-.449-.358a2.527,2.527,0,0,1,2.189-1.265,1.717,1.717,0,0,1,1.105.328,1.042,1.042,0,0,1,.417.876,1.585,1.585,0,0,1-.04.333l-.78,3.647Z" transform="translate(-989.71 -826.331)" fill="#91989e"/>
      <path id="Path_901" data-name="Path 901" d="M1069.905,866.768l.613-2.88a4.509,4.509,0,0,1-1.485.487,1.214,1.214,0,0,0-1.114,1.022c-.085.563.247.845,1,.845a2.342,2.342,0,0,0,.5-.048l-.5.573-.188.019c-.056,0-.109,0-.173,0a1.675,1.675,0,0,1-1.021-.279.973.973,0,0,1-.376-.822,1.53,1.53,0,0,1,.043-.331,1.6,1.6,0,0,1,.628-.974,2.615,2.615,0,0,1,1.124-.535c.3-.071.552-.127.736-.174a2.978,2.978,0,0,0,.365-.108c.437-.182.651-.447.651-.8a.589.589,0,0,0-.226-.482.886.886,0,0,0-.591-.185,1.359,1.359,0,0,0-.794.236,1.055,1.055,0,0,0-.447.6h-.77a1.642,1.642,0,0,1,.3-.536,2.037,2.037,0,0,1,.471-.421,2.461,2.461,0,0,1,.6-.284,2.385,2.385,0,0,1,.7-.1,1.744,1.744,0,0,1,1.053.289.952.952,0,0,1,.4.826c0,.041,0,.089-.006.138s-.014.1-.019.143l-.8,3.788Z" transform="translate(-999.096 -826.331)" fill="#91989e"/>
      <path id="Path_902" data-name="Path 902" d="M1073.449,880.587l.231-1.086h-.552l.119-.573h1.225l-.342,1.659Z" transform="translate(-1003.104 -837.978)" fill="#91989e"/>
      <path id="Path_903" data-name="Path 903" d="M1079.209,857.413l.269-1.279h.677l-.267,1.279Z" transform="translate(-1007.187 -822.67)" fill="#91989e"/>
      <path id="Path_904" data-name="Path 904" d="M1083.084,866.091a1.926,1.926,0,0,1-.413.463,2,2,0,0,1-.542.3,1.932,1.932,0,0,1-.622.1,1.236,1.236,0,0,1-1.269-.778l-.061.282a.626.626,0,0,1-.308.435h-.8a.942.942,0,0,0,.47-.59l.962-4.53h.679l-.73,3.453a1.088,1.088,0,0,0-.027.2.9.9,0,0,0,.321.719,1.04,1.04,0,0,0,.7.3,1.216,1.216,0,0,0,.793-.289,1.335,1.335,0,0,0,.449-.776l.764-3.609h.683l-.794,3.724a1.96,1.96,0,0,1-.251.588" transform="translate(-1007.089 -826.462)" fill="#91989e"/>
      <path id="Path_905" data-name="Path 905" d="M1097.193,853.567a.9.9,0,0,0-.33.543l-1.316,6.256h.588l-.462.513h-.908l1.472-6.937a.711.711,0,0,1,.513-.576h-1.978l.5-.551h2.573l-.115.551a.875.875,0,0,0-.541.2" transform="translate(-1017.634 -820.443)" fill="#91989e"/>
      <path id="Path_906" data-name="Path 906" d="M1102.74,866.768l.742-3.479a2.027,2.027,0,0,0,.052-.451c0-.5-.263-.741-.793-.741a1.6,1.6,0,0,0-.982.359,1.35,1.35,0,0,0-.564.856l-.73,3.457h-.679l.96-4.529c.008-.035.014-.065.02-.092s.006-.051.006-.077a.54.54,0,0,0-.244-.422h.808a.437.437,0,0,1,.129.436l-.064.266a2.069,2.069,0,0,1,1.675-.766q1.163,0,1.164,1.075a2.018,2.018,0,0,1-.012.221c-.008.085-.024.167-.04.251l-.768,3.636Z" transform="translate(-1021.004 -826.331)" fill="#91989e"/>
      <path id="Path_907" data-name="Path 907" d="M1117.417,866.058a1.859,1.859,0,0,1-.473.489,2.372,2.372,0,0,1-.641.307,2.734,2.734,0,0,1-.75.108,1.808,1.808,0,0,1-1.115-.318,1.035,1.035,0,0,1-.423-.872,1.508,1.508,0,0,1,.037-.345l.089-.386a1.468,1.468,0,0,1,.442-.739,1.2,1.2,0,0,1,.776-.345c-.528-.028-.794-.287-.794-.782a1.255,1.255,0,0,1,.474-.988,1.624,1.624,0,0,1,1.073-.407h.552l.242.539h-.687a.851.851,0,0,0-.964.69.511.511,0,0,0,.244.563,1.12,1.12,0,0,0,.667.129l.419-.025-.115.537h-.41a1.376,1.376,0,0,0-.809.236,1.009,1.009,0,0,0-.428.608l-.079.332a1.179,1.179,0,0,0-.038.281c0,.518.315.783.945.783a1.254,1.254,0,0,0,1.371-1.064l.768-3.609h.68l-.782,3.648a1.8,1.8,0,0,1-.269.631" transform="translate(-1030.561 -826.462)" fill="#91989e"/>
      <path id="Path_908" data-name="Path 908" d="M1130.809,862.921a1.905,1.905,0,0,1-.475.489,2.254,2.254,0,0,1-.64.307,2.738,2.738,0,0,1-.751.108,1.772,1.772,0,0,1-1.115-.326,1.055,1.055,0,0,1-.424-.879,1.469,1.469,0,0,1,.04-.331l.78-3.648h.675l-.764,3.609a.9.9,0,0,0-.02.135,1.159,1.159,0,0,0-.005.135c0,.528.313.795.93.795a1.26,1.26,0,0,0,1.374-1.064l1.1-5.143h.675l-1.11,5.182a1.886,1.886,0,0,1-.269.631" transform="translate(-1039.553 -823.325)" fill="#91989e"/>
      <path id="Path_909" data-name="Path 909" d="M1144.319,865.269a1.823,1.823,0,0,1-.733,1.154,2.342,2.342,0,0,1-1.384.409,1.848,1.848,0,0,1-1.136-.314,1.065,1.065,0,0,1-.41-.9,1.636,1.636,0,0,1,.052-.41h.742a.944.944,0,0,0-.055.322.707.707,0,0,0,.261.565.959.959,0,0,0,.637.215,1.384,1.384,0,0,0,.883-.307.986.986,0,0,0,.436-.819c0-.435-.339-.727-1.012-.885-.87-.2-1.305-.563-1.305-1.073a3.183,3.183,0,0,1,.023-.242,1.635,1.635,0,0,1,.7-1,2.162,2.162,0,0,1,1.27-.4,1.5,1.5,0,0,1,1.077.364,1.068,1.068,0,0,1,.315.98H1144a.664.664,0,0,0-.186-.591.825.825,0,0,0-.616-.239,1.25,1.25,0,0,0-.42.07,1.212,1.212,0,0,0-.377.2,1.247,1.247,0,0,0-.272.308.788.788,0,0,0-.1.391.529.529,0,0,0,.323.488,3.753,3.753,0,0,0,.8.269c.8.185,1.2.571,1.2,1.152a1.172,1.172,0,0,1-.006.138c-.006.051-.012.1-.018.153" transform="translate(-1048.453 -826.331)" fill="#91989e"/>
      <path id="Path_910" data-name="Path 910" d="M1154.548,867.568h-1.4l.206-.972h.675l-.1.457h1.065Zm.6-2.868h-1.392l.206-.973h.677l-.089.458h1.059Z" transform="translate(-1056.843 -827.77)" fill="#91989e"/>
      <path id="Path_911" data-name="Path 911" d="M1163.135,866.768l.766-3.611a.613.613,0,0,0,.02-.123,1.074,1.074,0,0,0,.01-.119q0-.819-.924-.819a1.478,1.478,0,0,0-1.307.707l.423.354a.782.782,0,0,0-.639.641l-.626,2.97h-.678l.616-2.9a.843.843,0,0,1,.576-.665l-.454-.358a2.573,2.573,0,0,1,.833-.87,2.512,2.512,0,0,1,1.36-.394,1.715,1.715,0,0,1,1.1.328,1.045,1.045,0,0,1,.416.876,1.614,1.614,0,0,1-.037.333l-.778,3.647Z" transform="translate(-1061.564 -826.331)" fill="#91989e"/>
      <path id="Path_912" data-name="Path 912" d="M1168.785,857.912l.218-1.035h.681l-.121.524h2.136l-.1.511Z" transform="translate(-1067.342 -823.169)" fill="#91989e"/>
      <path id="Path_913" data-name="Path 913" d="M1177.326,866.9a.437.437,0,0,1-.131-.435l.065-.269a1.715,1.715,0,0,1-1.534.768,1.4,1.4,0,0,1-.94-.314,1.138,1.138,0,0,1-.355-.891,1.664,1.664,0,0,1,.049-.405l.754-3.573h.68l-.726,3.417a1.532,1.532,0,0,0-.055.4c0,.57.31.856.922.856a1.346,1.346,0,0,0,.9-.339,1.571,1.571,0,0,0,.505-.879l.73-3.454h.675l-.962,4.53c0,.042-.009.1-.009.167a.6.6,0,0,0,.232.423Z" transform="translate(-1071.135 -826.462)" fill="#91989e"/>
      <path id="Path_914" data-name="Path 914" d="M1189.867,866.589a2.191,2.191,0,0,1-1.3.374,1.72,1.72,0,0,1-1.043-.288.936.936,0,0,1-.389-.8,1.294,1.294,0,0,1,.036-.321l.806-3.777h.679l-.79,3.724a1.006,1.006,0,0,0-.022.135c0,.045,0,.089,0,.136,0,.452.274.678.83.678a1.115,1.115,0,0,0,1.2-.949l.279-1.342a.541.541,0,0,0,.02-.093.376.376,0,0,0,.006-.087c0-.446-.291-.667-.881-.667h-.422l.1-.512h.424c.712,0,1.116-.234,1.2-.7l.064-.32h.678l-.08.361q-.162.8-1.3.919a.98.98,0,0,1,.679.218.718.718,0,0,1,.244.564,1.454,1.454,0,0,1-.027.218l-.316,1.5a1.635,1.635,0,0,1-.673,1.033" transform="translate(-1079.666 -826.462)" fill="#91989e"/>
      <path id="Path_915" data-name="Path 915" d="M1189.914,857.671l.1-.511h2.747l.141-.642h.683l-.244,1.153Z" transform="translate(-1081.532 -822.929)" fill="#91989e"/>
      <path id="Path_916" data-name="Path 916" d="M1203.151,864.208q-.55,2.626-2.417,2.625a1.622,1.622,0,0,1-1.081-.326,1.116,1.116,0,0,1-.39-.9v-.123a.515.515,0,0,1,.011-.122h.7c-.062.64.222.961.856.961.806,0,1.348-.707,1.637-2.114a5.134,5.134,0,0,0,.131-1.038c0-.714-.291-1.073-.86-1.073a1.243,1.243,0,0,0-1.192.831h-.717a2.053,2.053,0,0,1,.321-.536,2.4,2.4,0,0,1,.475-.421,2.3,2.3,0,0,1,.582-.284,2.044,2.044,0,0,1,.634-.1q1.447,0,1.445,1.522a3.449,3.449,0,0,1-.039.512c-.025.179-.059.373-.1.588" transform="translate(-1087.81 -826.331)" fill="#91989e"/>
      <path id="Path_917" data-name="Path 917" d="M1202.295,858.984l.1-.511h3.428l-.1.511Z" transform="translate(-1089.846 -824.241)" fill="#91989e"/>
      <path id="Path_918" data-name="Path 918" d="M1214.66,866.768l.819-3.852c.009-.045.014-.082.018-.112a.763.763,0,0,0,.006-.12c0-.273-.087-.434-.254-.486a1.1,1.1,0,0,1-.935.5.657.657,0,0,1-.716-.5c-.267.063-.441.3-.536.718l-.589,2.737,1.6-1.882h-.739l.316-.51h1.231l-.1.51-2.533,3h-.679l.848-3.964a1.482,1.482,0,0,1,.532-.88,1.563,1.563,0,0,1,1-.339.455.455,0,0,0,.483.552.734.734,0,0,0,.489-.174.676.676,0,0,0,.242-.378,1.068,1.068,0,0,1,.758.255.881.881,0,0,1,.281.68c0,.041-.008.089-.008.14s-.012.1-.019.144l-.845,3.964Z" transform="translate(-1096.069 -826.331)" fill="#91989e"/>
      <path id="Path_919" data-name="Path 919" d="M888.932,776.961a1.628,1.628,0,0,0,0-2.379l-1.191-1.192-3.821,3.825,2.377,2.377Zm4.34,4.335a1.629,1.629,0,0,0-.007-2.378l-1.188-1.192-3.827,3.826,2.385,2.38Zm-6.975-.675-2.377,2.372,1.185,1.2,2.636,2.632,2.38-2.375-2.629-2.637Zm-.507-.512-2.377-2.383-3.832,3.826,2.382,2.38,1.189-1.189Zm.507,9.186-2.377,2.377,3.821,3.831,1.191-1.195a1.626,1.626,0,0,0,0-2.385Zm-8.42-6.041a1.616,1.616,0,0,0,0,2.377l2.64,2.644,2.382-2.389-3.828-3.826-1.193,1.195m10.373,4.084,3.827,3.827,1.2-1.2a1.613,1.613,0,0,0-.007-2.38l-2.63-2.634Zm-4.582-1.2c-.01,0-.01.007-.01.007l-2.633,2.633,2.387,2.385,3.825-3.821-2.38-2.385-1.19,1.182" transform="translate(-871.621 -767.103)" fill="#ff7301"/>
      <path id="Path_920" data-name="Path 920" d="M875.074,791.224a15.15,15.15,0,1,1,15.15-15.15A15.167,15.167,0,0,1,875.074,791.224Zm0-28.074A12.924,12.924,0,1,0,888,776.075,12.939,12.939,0,0,0,875.074,763.15Z" transform="translate(-859.924 -758.731)" fill="#fff"/>
    </g>
  </g>
</svg>
